<svg xmlns="http://www.w3.org/2000/svg" width="59" height="61" viewBox="0 0 59 61" fill="none">
  <path d="M33.7894 20.9218C33.7894 20.9849 33.7894 21.0446 33.7894 21.1043C33.7673 21.6363 33.8707 22.1661 34.0914 22.6506L26.8642 29.3071L19.6337 35.9635C19.1157 35.675 18.5311 35.5274 17.9382 35.5354L10.1469 12.8154C10.4826 12.6346 10.7937 12.4116 11.0726 12.1517C11.3501 11.8954 11.5933 11.6043 11.7961 11.2856L33.7894 20.9218Z" fill="white"/>
  <path d="M3.54352 38.6616L14.663 39.6836C14.7952 40.2669 15.0798 40.8047 15.4879 41.242C15.896 41.6792 16.4129 42.0003 16.9857 42.1723L17.2147 51.0686L17.3176 54.931C16.9873 55.0652 16.6787 55.2474 16.4017 55.4719L2.48834 40.3672C2.96783 39.8884 3.3291 39.3044 3.54352 38.6616Z" fill="white"/>
  <path d="M7.86052 13.3367H8.07618L15.9206 36.2326C15.8343 36.299 15.7513 36.3687 15.6684 36.4417C15.3197 36.763 15.0427 37.1542 14.8554 37.5898L3.71603 36.5645C3.58072 35.7215 3.20552 34.9352 2.63534 34.2997C2.06515 33.6642 1.32412 33.2063 0.500671 32.9807L6.94468 13.2173C7.24524 13.2874 7.55203 13.3274 7.86052 13.3367Z" fill="white"/>
  <path d="M21.3393 39.2856C21.4035 38.6826 21.3062 38.0733 21.0572 37.5203L35.5115 24.2075C36.0417 24.5014 36.6409 24.648 37.2469 24.6322L45.6122 48.1022C45.2959 48.2751 45.0018 48.4856 44.7362 48.7293C44.4735 48.9741 44.2406 49.2493 44.0427 49.549L21.3393 39.2856Z" fill="white"/>
  <path d="M33.3148 5.94045C33.9656 6.65094 34.8319 7.1278 35.7803 7.2976V7.67921L36.0225 18.0388C35.5894 18.1913 35.1919 18.4307 34.8545 18.7422C34.7749 18.8152 34.6985 18.8949 34.6255 18.9745L27.0798 15.6762L12.4795 9.27863C12.4795 9.20894 12.4795 9.13594 12.4795 9.06625C12.4931 8.7667 12.4764 8.46651 12.4297 8.1703L32.1899 3.61768C32.3243 4.48697 32.7161 5.29604 33.3148 5.94045Z" fill="white"/>
  <path d="M52.9257 20.6696C52.5187 21.0464 52.1865 21.4967 51.9468 21.9969L40.4889 20.5933C40.3718 19.9899 40.0914 19.4302 39.6784 18.975C39.2653 18.5199 38.7354 18.1867 38.1462 18.0117L37.8973 7.33687V7.1942C38.5359 6.99585 39.1212 6.65552 39.6095 6.19873L52.9323 20.663L52.9257 20.6696Z" fill="white"/>
  <path d="M47.9384 47.554H47.6629L39.2413 23.9247C39.3176 23.865 39.3906 23.8053 39.4636 23.7389C39.7864 23.4419 40.048 23.0846 40.2334 22.687L51.4989 24.0641C51.5209 25.0032 51.8411 25.9109 52.4132 26.656C52.9852 27.401 53.7795 27.9448 54.6811 28.2086L48.7713 47.6668C48.4979 47.6025 48.219 47.5648 47.9384 47.554Z" fill="white"/>
  <path d="M21.326 55.8289C20.8237 55.2824 20.1639 54.9055 19.438 54.7504L19.1061 42.1212C19.5354 41.9683 19.9294 41.7302 20.2642 41.4211C20.3372 41.3547 20.4002 41.285 20.4666 41.2153L43.326 51.545C43.326 51.6379 43.3061 51.7275 43.3028 51.8171C43.2898 52.1077 43.3053 52.3989 43.3492 52.6865L22.1689 57.3984C22.0262 56.812 21.736 56.2717 21.326 55.8289Z" fill="white"/>
  <path d="M10.3759 8.98302C10.3527 9.51959 10.1443 10.0315 9.78619 10.4318C9.42805 10.832 8.94229 11.0957 8.41158 11.1781C7.88087 11.2605 7.33797 11.1564 6.87535 10.8836C6.41273 10.6108 6.05895 10.1861 5.87421 9.68183C5.68947 9.17753 5.68522 8.62478 5.86214 8.11769C6.03905 7.6106 6.38615 7.18051 6.84449 6.90057C7.30283 6.62063 7.84401 6.50815 8.37594 6.58231C8.90786 6.65647 9.39768 6.91266 9.76197 7.30729C9.96972 7.53234 10.1309 7.79624 10.2363 8.08383C10.3416 8.37141 10.3891 8.67703 10.3759 8.98302Z" fill="white"/>
  <path d="M38.1727 4.64926C37.7773 5.01245 37.2682 5.22744 36.7321 5.25762C36.196 5.2878 35.666 5.13132 35.2323 4.81481C34.7986 4.4983 34.4879 4.04131 34.3531 3.52157C34.2183 3.00183 34.2678 2.45143 34.4931 1.96404C34.7183 1.47664 35.1055 1.08235 35.5887 0.84822C36.0719 0.614085 36.6213 0.554546 37.1434 0.679796C37.6655 0.805046 38.1281 1.10734 38.4525 1.5352C38.7769 1.96306 38.943 2.49008 38.9227 3.02663C38.911 3.33322 38.8387 3.63448 38.71 3.91298C38.5813 4.19149 38.3987 4.44172 38.1727 4.64926Z" fill="white"/>
  <path d="M54.2263 25.5179C53.9171 25.1794 53.715 24.757 53.6454 24.3039C53.5758 23.8508 53.6418 23.3872 53.8351 22.9716C54.0285 22.5559 54.3405 22.2068 54.7319 21.9681C55.1233 21.7294 55.5766 21.6119 56.0346 21.6303C56.4927 21.6487 56.9351 21.8023 57.306 22.0716C57.677 22.341 57.9599 22.7141 58.1192 23.144C58.2785 23.5738 58.3071 24.0412 58.2013 24.4873C58.0955 24.9333 57.8601 25.3381 57.5247 25.6506C57.3001 25.8598 57.0363 26.0225 56.7485 26.1292C56.4607 26.2358 56.1546 26.2844 55.8479 26.2721C55.5412 26.2597 55.2399 26.1867 54.9616 26.0573C54.6833 25.9278 54.4334 25.7445 54.2263 25.5179Z" fill="white"/>
  <path d="M45.4198 51.9085C45.4385 51.3711 45.6431 50.8568 45.9987 50.4534C46.3543 50.05 46.8388 49.7825 47.3696 49.6964C47.9004 49.6104 48.4446 49.7112 48.9094 49.9817C49.3742 50.2521 49.7307 50.6754 49.9182 51.1794C50.1057 51.6834 50.1125 52.2369 49.9375 52.7453C49.7625 53.2538 49.4165 53.6858 48.9585 53.9676C48.5005 54.2494 47.9589 54.3635 47.4261 54.2906C46.8934 54.2177 46.4024 53.9621 46.037 53.5676C45.6204 53.1177 45.3985 52.5213 45.4198 51.9085Z" fill="white"/>
  <path d="M17.092 56.5531C17.49 56.1849 18.0035 55.9662 18.5448 55.9342C19.0861 55.9023 19.6217 56.0592 20.0603 56.3781C20.4989 56.6969 20.8133 57.1581 20.9498 57.6828C21.0864 58.2076 21.0368 58.7635 20.8093 59.2557C20.5818 59.7479 20.1906 60.146 19.7024 60.382C19.2142 60.618 18.6592 60.6774 18.1322 60.55C17.6051 60.4226 17.1386 60.1162 16.8122 59.6833C16.4857 59.2503 16.3196 58.7175 16.342 58.1757C16.3537 57.8691 16.4259 57.5679 16.5546 57.2894C16.6833 57.0109 16.866 56.7606 17.092 56.5531Z" fill="white"/>
</svg>