<svg xmlns="http://www.w3.org/2000/svg" width="63" height="61" viewBox="0 0 63 61" fill="none">
  <path d="M37.6136 20.9218C37.6136 20.9849 37.6136 21.0446 37.6136 21.1043C37.5915 21.6363 37.6949 22.1661 37.9155 22.6506L30.6884 29.3071L23.4579 35.9635C22.9398 35.675 22.3552 35.5274 21.7623 35.5354L13.9711 12.8154C14.3068 12.6346 14.6179 12.4116 14.8968 12.1517C15.1743 11.8954 15.4175 11.6043 15.6202 11.2856L37.6136 20.9218Z" fill="white"/>
  <path d="M7.36774 38.6616L18.4872 39.6836C18.6194 40.2669 18.904 40.8047 19.3121 41.242C19.7202 41.6792 20.2371 42.0003 20.81 42.1723L21.0389 51.0686L21.1418 54.931C20.8115 55.0652 20.5029 55.2474 20.226 55.4719L6.31256 40.3672C6.79205 39.8884 7.15332 39.3044 7.36774 38.6616Z" fill="white"/>
  <path d="M11.6847 13.3367H11.9004L19.7448 36.2326C19.6585 36.299 19.5755 36.3687 19.4926 36.4417C19.144 36.763 18.867 37.1542 18.6796 37.5898L7.54025 36.5645C7.40493 35.7215 7.02974 34.9352 6.45955 34.2997C5.88937 33.6642 5.14834 33.2063 4.32489 32.9807L10.7689 13.2173C11.0695 13.2874 11.3763 13.3274 11.6847 13.3367Z" fill="white"/>
  <path d="M25.1634 39.2856C25.2277 38.6826 25.1303 38.0733 24.8813 37.5203L39.3357 24.2075C39.8659 24.5014 40.4651 24.648 41.0711 24.6322L49.4364 48.1022C49.1201 48.2751 48.826 48.4856 48.5604 48.7293C48.2976 48.9741 48.0648 49.2493 47.8669 49.549L25.1634 39.2856Z" fill="white"/>
  <path d="M37.1389 5.94045C37.7897 6.65094 38.6561 7.1278 39.6045 7.2976V7.67921L39.8467 18.0388C39.4135 18.1913 39.0161 18.4307 38.6786 18.7422C38.599 18.8152 38.5226 18.8949 38.4496 18.9745L30.9039 15.6762L16.3036 9.27863C16.3036 9.20894 16.3036 9.13594 16.3036 9.06625C16.3172 8.7667 16.3006 8.46651 16.2539 8.1703L36.0141 3.61768C36.1484 4.48697 36.5402 5.29604 37.1389 5.94045Z" fill="white"/>
  <path d="M56.7498 20.6696C56.3428 21.0464 56.0106 21.4967 55.7709 21.9969L44.313 20.5933C44.1959 19.9899 43.9155 19.4302 43.5025 18.975C43.0894 18.5199 42.5595 18.1867 41.9703 18.0117L41.7214 7.33687V7.1942C42.36 6.99585 42.9453 6.65552 43.4336 6.19873L56.7564 20.663L56.7498 20.6696Z" fill="white"/>
  <path d="M51.7625 47.554H51.4871L43.0654 23.9247C43.1417 23.865 43.2147 23.8053 43.2877 23.7389C43.6106 23.4419 43.8721 23.0846 44.0576 22.687L55.323 24.0641C55.3451 25.0032 55.6653 25.9109 56.2373 26.656C56.8094 27.401 57.6037 27.9448 58.5052 28.2086L52.5954 47.6668C52.3221 47.6025 52.0431 47.5648 51.7625 47.554Z" fill="white"/>
  <path d="M25.1503 55.8289C24.648 55.2824 23.9882 54.9055 23.2622 54.7504L22.9304 42.1212C23.3597 41.9683 23.7536 41.7302 24.0885 41.4211C24.1615 41.3547 24.2245 41.285 24.2909 41.2153L47.1503 51.545C47.1503 51.6379 47.1304 51.7275 47.1271 51.8171C47.1141 52.1077 47.1296 52.3989 47.1735 52.6865L25.9932 57.3984C25.8504 56.812 25.5603 56.2717 25.1503 55.8289Z" fill="white"/>
  <path d="M4.86243 35.6747C5.16847 36.0144 5.36745 36.4368 5.43445 36.8891C5.50146 37.3414 5.43355 37.8034 5.23913 38.2172C5.04472 38.631 4.7325 38.9783 4.3416 39.2154C3.9507 39.4525 3.49843 39.569 3.0416 39.5503C2.58477 39.5316 2.1437 39.3784 1.77352 39.1101C1.40335 38.8417 1.12054 38.4701 0.960651 38.0418C0.800763 37.6134 0.770895 37.1474 0.874698 36.7021C0.9785 36.2569 1.21136 35.8521 1.54418 35.5386C1.76937 35.3265 2.03466 35.1616 2.32449 35.0534C2.61431 34.9452 2.92289 34.896 3.23198 34.9087C3.54108 34.9214 3.8445 34.9956 4.12449 35.1272C4.40448 35.2587 4.65535 35.4449 4.86243 35.6747Z" fill="white"/>
  <path d="M14.2 8.98302C14.1769 9.51959 13.9685 10.0315 13.6103 10.4318C13.2522 10.832 12.7665 11.0957 12.2357 11.1781C11.705 11.2605 11.1621 11.1564 10.6995 10.8836C10.2369 10.6108 9.88311 10.1861 9.69836 9.68183C9.51362 9.17753 9.50938 8.62478 9.68629 8.11769C9.86321 7.6106 10.2103 7.18051 10.6686 6.90057C11.127 6.62063 11.6682 6.50815 12.2001 6.58231C12.732 6.65647 13.2218 6.91266 13.5861 7.30729C13.7939 7.53234 13.9551 7.79624 14.0605 8.08383C14.1658 8.37141 14.2132 8.67703 14.2 8.98302Z" fill="white"/>
  <path d="M41.997 4.64926C41.6016 5.01245 41.0925 5.22744 40.5564 5.25762C40.0203 5.2878 39.4903 5.13132 39.0566 4.81481C38.6229 4.4983 38.3122 4.04131 38.1774 3.52157C38.0426 3.00183 38.0921 2.45143 38.3174 1.96404C38.5426 1.47664 38.9298 1.08235 39.413 0.84822C39.8962 0.614085 40.4456 0.554546 40.9677 0.679796C41.4898 0.805046 41.9524 1.10734 42.2767 1.5352C42.6011 1.96306 42.7673 2.49008 42.7469 3.02663C42.7353 3.33322 42.663 3.63448 42.5343 3.91298C42.4056 4.19149 42.223 4.44172 41.997 4.64926Z" fill="white"/>
  <path d="M58.0505 25.5179C57.7413 25.1794 57.5392 24.757 57.4696 24.3039C57.4 23.8508 57.466 23.3872 57.6593 22.9716C57.8526 22.5559 58.1647 22.2068 58.5561 21.9681C58.9475 21.7294 59.4007 21.6119 59.8588 21.6303C60.3168 21.6487 60.7592 21.8023 61.1302 22.0716C61.5011 22.341 61.7841 22.7141 61.9434 23.144C62.1027 23.5738 62.1312 24.0412 62.0254 24.4873C61.9196 24.9333 61.6842 25.3381 61.3488 25.6506C61.1242 25.8598 60.8605 26.0225 60.5726 26.1292C60.2848 26.2358 59.9787 26.2844 59.672 26.2721C59.3653 26.2597 59.0641 26.1867 58.7858 26.0573C58.5075 25.9278 58.2575 25.7445 58.0505 25.5179Z" fill="white"/>
  <path d="M49.2441 51.9085C49.2628 51.3711 49.4674 50.8568 49.823 50.4534C50.1786 50.05 50.6631 49.7825 51.1939 49.6964C51.7247 49.6104 52.2689 49.7112 52.7337 49.9817C53.1985 50.2521 53.555 50.6754 53.7425 51.1794C53.93 51.6834 53.9368 52.2369 53.7618 52.7453C53.5868 53.2538 53.2407 53.6858 52.7828 53.9676C52.3248 54.2494 51.7832 54.3635 51.2504 54.2906C50.7177 54.2177 50.2267 53.9621 49.8613 53.5676C49.4446 53.1177 49.2227 52.5213 49.2441 51.9085Z" fill="white"/>
  <path d="M20.9163 56.5531C21.3143 56.1849 21.8278 55.9662 22.3691 55.9342C22.9104 55.9023 23.446 56.0592 23.8846 56.3781C24.3232 56.6969 24.6375 57.1581 24.7741 57.6828C24.9107 58.2076 24.8611 58.7635 24.6336 59.2557C24.4061 59.7479 24.0149 60.146 23.5267 60.382C23.0385 60.618 22.4835 60.6774 21.9564 60.55C21.4294 60.4226 20.9629 60.1162 20.6364 59.6833C20.31 59.2503 20.1438 58.7175 20.1663 58.1757C20.178 57.8691 20.2502 57.5679 20.3789 57.2894C20.5076 57.0109 20.6903 56.7606 20.9163 56.5531Z" fill="white"/>
</svg>