<svg width="395" height="468" viewBox="0 0 395 468" fill="none" xmlns="http://www.w3.org/2000/svg">
<mask id="path-1-inside-1_200_670" fill="white">
<path d="M35.0008 268.769L32.5615 264.644C31.8137 265.173 31.1904 265.543 30.6432 266.01C20.9869 274.373 12.7928 283.869 7.94157 295.853C-1.08525 318.137 5.66804 345.349 23.7441 359.227C33.4403 366.676 44.7157 370.147 56.7079 371.589C68.948 373.062 80.7819 371.473 92.2094 366.823C98.5987 364.225 103.962 360.343 108.774 355.498C109.727 354.537 112.328 353.534 112.638 353.884C114.229 355.693 112.021 356.637 111.058 357.64C101.638 367.466 89.6392 372.142 76.5053 374.261C60.5507 376.835 45.1208 374.764 30.7093 367.468C11.7732 357.883 2.13684 342.095 0.810608 321.067C-0.449558 301.078 7.32331 284.696 20.8212 270.561C23.5048 267.75 26.4551 265.193 29.2148 262.452C29.7396 261.93 30.3366 261.016 30.2306 260.402C29.4105 255.798 31.5606 252.438 34.9173 249.874C37.8428 247.639 41.2157 245.992 44.2932 243.939C45.0024 243.466 45.7889 242.355 45.7253 241.611C45.4062 238.085 47.246 235.96 49.8947 234.099C70.3316 219.736 90.7539 205.352 111.162 190.948C115.275 188.048 119.315 185.039 123.469 182.198C125.138 181.057 125.495 179.964 124.829 177.977C122.669 171.578 121.828 164.81 122.356 158.079C123.244 146.616 127.448 137.316 139.14 133.097C138.256 118.857 148.459 108.762 163.135 109.702C162.293 102.781 163.303 96.3246 169.425 92.0436C175.446 87.8308 182.036 88.7645 188.739 91.1645C189.093 90.0135 189.387 89.0538 189.685 88.0953C193.512 75.765 207.827 71.0792 218.26 78.761C222.643 81.9891 225.782 86.2254 228.079 91.1062C228.802 92.642 229.45 94.2102 230.234 95.9993C230.866 95.6604 231.441 95.422 231.938 95.0755C242.921 87.4099 253.856 79.6797 264.901 72.106C267.23 70.5093 268.039 68.6047 268.515 65.8881C272.406 43.7032 281.78 24.6732 300.991 11.5495C321.512 -2.47059 347.918 -3.14229 367.985 9.78274C396.913 28.4154 402.983 68.2086 381.085 95.8789C368.197 112.164 350.796 119.773 330.512 121.556C324.552 122.08 318.537 121.939 312.554 122.235C311.199 122.303 309.703 122.651 308.559 123.342C300.341 128.292 292.245 133.445 283.994 138.337C282.155 139.425 281.875 140.488 282.17 142.41C283.634 151.959 284.856 161.546 286.351 171.091C287.458 178.168 286.188 184.8 283.58 191.366C277.877 205.713 269.188 218.211 259.803 230.322C255.096 236.393 250.535 242.579 245.981 248.766C240.995 255.542 238.647 263.246 238.205 271.575C236.289 307.717 237.949 531.412 236.035 567.553C236.016 567.913 235.94 568.271 235.777 569.466C232.624 566.098 231.15 562.789 231.337 558.789C231.61 552.921 230.946 380.964 231.254 375.098C232.51 351.161 231.147 305.759 232.51 281.828C232.884 275.221 233.374 268.57 234.557 262.074C236.16 253.266 241.525 246.228 246.725 239.174C254.657 228.414 262.724 217.738 270.214 206.677C273.691 201.544 276.083 195.655 278.718 189.993C281.677 183.634 282.332 176.956 281.162 170.003C278.958 156.931 277.277 143.762 274.779 130.748C272.535 119.062 264.881 114.255 253.205 117.049C241.474 119.857 229.896 123.319 218.258 126.485C209.251 128.938 208.951 136.714 211.87 142.141C215.753 149.361 222.091 152.728 230.044 152.891C233.794 152.968 237.587 152.133 241.323 151.49C244.75 150.899 247.671 149.461 250.048 146.627C251.869 144.45 254.455 142.909 256.701 141.085L257.372 141.649C256.634 142.789 255.896 143.928 255.158 145.067C253.354 147.85 251.43 150.564 249.767 153.428C246.675 158.76 247.003 164.04 250.159 169.313C251.859 172.172 253.243 175.207 254.286 178.363C248.516 172.132 240.407 167.072 243.291 156.937L223.918 158.27C224.021 162.432 222.599 166.488 219.919 169.682C216.967 173.222 213.29 175.305 208.624 175.157C204.42 186.571 200.378 188.707 189.126 185.573C183.456 195.564 174.524 197.958 164.362 192.125C161.322 190.379 158.407 188.42 154.72 186.11C155.517 187.27 155.787 187.938 156.278 188.334C160.1 191.417 163.7 194.888 167.878 197.398C174.083 201.123 180.851 201.466 187.073 197.36C194.822 192.243 202.239 186.626 209.883 181.343C217.77 175.887 225.743 170.557 233.699 165.202C234.946 164.362 236.317 163.694 237.611 162.952C239.811 166.445 239.72 166.618 236.529 168.797C228.925 173.99 221.275 179.132 213.795 184.502C196.883 196.643 191.982 213.555 194.692 233.335C195.138 236.598 195.881 239.82 196.518 243.23C189.496 238.417 185.549 216.87 194.741 198.702C192.862 199.74 191.357 200.556 189.867 201.397C184.285 204.553 178.459 205.991 172.058 204.224C171.208 203.99 169.967 204.329 169.18 204.828C160.68 210.223 152.202 215.658 143.814 221.224C142.899 221.833 141.994 223.377 142.081 224.405C142.444 228.719 142.655 233.164 143.922 237.252C145.543 242.467 148.105 247.384 150.29 252.417C153.282 259.314 158.935 262.19 166.12 262.612C172.29 262.974 178.468 263.233 184.64 263.541C185.568 263.566 186.49 263.708 187.382 263.963C175.971 267.324 164.572 269.894 152.996 263.853C152.872 264.218 152.662 264.529 152.661 264.847C152.563 280.367 149.094 295.492 147.177 310.798C144.415 332.881 123.706 524.683 120.978 546.771C120.335 551.98 118.735 556.683 114.538 560.497C114.663 558.323 114.663 556.132 114.949 553.976C119.509 518.94 142.073 314.193 146.482 279.137C147.318 272.494 147.094 265.716 147.304 258.999C147.318 258.24 147.141 257.491 146.788 256.818C141.737 247.425 137.588 237.726 136.621 226.497C131.425 229.881 126.595 233.032 121.76 236.176C105.037 247.048 88.2693 257.855 71.6217 268.845C68.513 270.896 65.8693 271.079 63.1458 268.668C61.746 267.427 60.7426 267.87 59.4401 268.831C57.0793 270.569 54.6599 272.275 52.1072 273.717C47.7982 276.154 43.4493 275.811 39.518 272.895C37.9337 271.719 36.9603 272.026 35.5891 273.019C22.7644 282.357 15.8329 295.206 12.8077 310.47C6.16039 344.011 33.3979 363.397 56.031 365.101C78.638 366.797 96.7116 358.612 110.454 340.742C111.599 339.252 112.73 337.752 114.35 336.553C113.436 338.026 112.598 339.551 111.6 340.965C101.878 354.757 89.3301 364.413 72.3371 367.569C49.6517 371.79 27.8973 363.037 15.6933 344.786C7.1725 332.044 6.92319 318.258 10.8159 304.102C14.65 290.155 22.292 278.622 33.8753 269.777C34.2318 269.483 34.5583 269.159 35.0008 268.769ZM335.479 5.3403C332.532 5.6954 328.693 5.82826 325.008 6.65516C301.069 12.0325 286.089 27.1676 278.017 49.7783C277.275 51.8518 277.624 53.2896 278.968 54.926C285.533 62.9128 292.04 70.9443 298.491 79.0205C307.984 90.8566 317.404 102.752 326.948 114.548C327.796 115.595 329.395 116.836 330.533 116.735C352.346 114.816 370.383 105.943 381.646 86.6488C392.08 68.7698 392.442 50.1309 382.145 31.98C372.179 14.4015 356.367 6.16348 335.479 5.3403ZM164.559 201.793C164.335 201.431 164.277 201.228 164.142 201.137C163.519 200.706 162.86 200.325 162.238 199.895C156.393 195.834 150.748 191.328 148.558 184.386C147.521 181.096 145.625 179.384 143.222 177.581C142.071 176.719 141.237 176.62 139.966 177.502C111.485 197.266 82.9823 217.003 54.4592 236.711C50.6102 239.378 50.3547 240.102 51.889 244.533C54.2698 251.411 58.6025 257.041 63.8027 262.001C68.5753 266.555 67.1469 266.17 72.1477 262.886C97.3161 246.361 122.435 229.758 147.503 213.079L164.559 201.793ZM275.973 58.847L274.962 59.1077C274.476 62.4228 273.768 65.7254 273.582 69.0579C273.458 71.3784 272.676 72.8572 270.751 74.1708C259.925 81.5533 249.173 89.0526 238.401 96.527C236.157 98.0827 233.97 99.708 231.814 101.259L237.325 115.675C242.962 114.336 248.187 112.89 253.497 111.877C266.489 109.394 275.902 115.291 279.497 127.962C280.085 130.036 280.554 132.143 281.179 134.64C290.035 129.068 298.604 123.629 307.241 118.303C308.352 117.618 309.82 117.267 311.143 117.211C314.674 117.063 318.216 117.16 322.4 117.16L275.973 58.847ZM206.464 124.264C205.972 123.35 205.574 122.602 205.168 121.857C202.081 116.203 198.971 110.558 195.909 104.89C192.316 98.2329 186.722 94.7292 179.181 94.3132C175.192 94.0935 171.731 95.2581 169.832 98.9978C167.733 103.136 166.901 107.441 169.74 111.668C177.621 123.389 185.625 135.028 193.379 146.83C198.209 154.182 202.643 161.79 207.361 169.218C207.773 169.867 209.003 170.407 209.799 170.341C213.891 170.006 217.402 166.526 218.369 161.977C219.107 158.521 218.483 155.823 215.429 153.239C212.032 150.365 208.777 146.858 206.731 142.963C202.285 134.491 205.804 126.062 214.751 122.666C219.445 120.885 224.357 119.673 229.171 118.197C230.118 117.907 231.063 117.609 232.366 117.203C229.075 108.551 226.109 100.166 222.686 91.9716C220.634 87.0561 217.099 83.1761 211.992 81.0455C204.14 77.7751 195.304 83.042 194.582 91.4749C194.483 92.6308 194.682 94.009 195.251 94.9911C199.614 102.52 204.165 109.944 208.532 117.472C210.863 121.497 210.752 121.56 206.464 124.264ZM161.259 114.872C151.047 114.754 143.629 122.127 144.641 130.686C144.757 131.669 145.371 132.797 146.11 133.466C148.135 135.296 150.577 136.703 152.456 138.657C162.847 149.465 173.163 160.344 183.404 171.296C185.201 173.216 186.769 175.408 188.13 177.66C190.151 181.003 194.51 182.91 198.108 181.712C201.562 180.562 203.731 177.071 202.605 172.996C201.612 169.459 200.084 166.094 198.073 163.016C188.468 148.34 178.525 133.883 168.966 119.177C166.777 115.808 164.072 114.75 161.259 114.869V114.872ZM137.577 172.79L133.214 166.315L133.794 165.711C134.716 166.25 135.674 166.736 136.556 167.334C146.059 173.79 155.502 180.347 165.081 186.684C167.384 188.178 169.922 189.28 172.588 189.945C176.963 191.049 181.088 189.381 182.911 186.33C184.801 183.167 184.282 179.654 180.858 176.003C170.018 164.444 159.103 152.952 148.115 141.529C143.657 136.914 139.831 136.87 134.952 141.105C133.265 142.569 131.668 144.379 130.681 146.355C125.512 156.69 126.817 167.186 130.122 178.102L137.577 172.79ZM57.958 263.868L47.0952 248.153C46.1578 248.671 44.9151 249.311 43.721 250.029C41.5347 251.347 39.3123 252.619 37.2258 254.082C35.3075 255.427 34.5396 257.376 35.75 259.526C37.3167 262.311 38.8748 265.164 40.8928 267.618C43.6575 270.979 47.4205 271.343 51.0439 268.935C53.4783 267.317 55.7668 265.485 57.9605 263.866L57.958 263.868Z"/>
</mask>
<path d="M35.0008 268.769L32.5615 264.644C31.8137 265.173 31.1904 265.543 30.6432 266.01C20.9869 274.373 12.7928 283.869 7.94157 295.853C-1.08525 318.137 5.66804 345.349 23.7441 359.227C33.4403 366.676 44.7157 370.147 56.7079 371.589C68.948 373.062 80.7819 371.473 92.2094 366.823C98.5987 364.225 103.962 360.343 108.774 355.498C109.727 354.537 112.328 353.534 112.638 353.884C114.229 355.693 112.021 356.637 111.058 357.64C101.638 367.466 89.6392 372.142 76.5053 374.261C60.5507 376.835 45.1208 374.764 30.7093 367.468C11.7732 357.883 2.13684 342.095 0.810608 321.067C-0.449558 301.078 7.32331 284.696 20.8212 270.561C23.5048 267.75 26.4551 265.193 29.2148 262.452C29.7396 261.93 30.3366 261.016 30.2306 260.402C29.4105 255.798 31.5606 252.438 34.9173 249.874C37.8428 247.639 41.2157 245.992 44.2932 243.939C45.0024 243.466 45.7889 242.355 45.7253 241.611C45.4062 238.085 47.246 235.96 49.8947 234.099C70.3316 219.736 90.7539 205.352 111.162 190.948C115.275 188.048 119.315 185.039 123.469 182.198C125.138 181.057 125.495 179.964 124.829 177.977C122.669 171.578 121.828 164.81 122.356 158.079C123.244 146.616 127.448 137.316 139.14 133.097C138.256 118.857 148.459 108.762 163.135 109.702C162.293 102.781 163.303 96.3246 169.425 92.0436C175.446 87.8308 182.036 88.7645 188.739 91.1645C189.093 90.0135 189.387 89.0538 189.685 88.0953C193.512 75.765 207.827 71.0792 218.26 78.761C222.643 81.9891 225.782 86.2254 228.079 91.1062C228.802 92.642 229.45 94.2102 230.234 95.9993C230.866 95.6604 231.441 95.422 231.938 95.0755C242.921 87.4099 253.856 79.6797 264.901 72.106C267.23 70.5093 268.039 68.6047 268.515 65.8881C272.406 43.7032 281.78 24.6732 300.991 11.5495C321.512 -2.47059 347.918 -3.14229 367.985 9.78274C396.913 28.4154 402.983 68.2086 381.085 95.8789C368.197 112.164 350.796 119.773 330.512 121.556C324.552 122.08 318.537 121.939 312.554 122.235C311.199 122.303 309.703 122.651 308.559 123.342C300.341 128.292 292.245 133.445 283.994 138.337C282.155 139.425 281.875 140.488 282.17 142.41C283.634 151.959 284.856 161.546 286.351 171.091C287.458 178.168 286.188 184.8 283.58 191.366C277.877 205.713 269.188 218.211 259.803 230.322C255.096 236.393 250.535 242.579 245.981 248.766C240.995 255.542 238.647 263.246 238.205 271.575C236.289 307.717 237.949 531.412 236.035 567.553C236.016 567.913 235.94 568.271 235.777 569.466C232.624 566.098 231.15 562.789 231.337 558.789C231.61 552.921 230.946 380.964 231.254 375.098C232.51 351.161 231.147 305.759 232.51 281.828C232.884 275.221 233.374 268.57 234.557 262.074C236.16 253.266 241.525 246.228 246.725 239.174C254.657 228.414 262.724 217.738 270.214 206.677C273.691 201.544 276.083 195.655 278.718 189.993C281.677 183.634 282.332 176.956 281.162 170.003C278.958 156.931 277.277 143.762 274.779 130.748C272.535 119.062 264.881 114.255 253.205 117.049C241.474 119.857 229.896 123.319 218.258 126.485C209.251 128.938 208.951 136.714 211.87 142.141C215.753 149.361 222.091 152.728 230.044 152.891C233.794 152.968 237.587 152.133 241.323 151.49C244.75 150.899 247.671 149.461 250.048 146.627C251.869 144.45 254.455 142.909 256.701 141.085L257.372 141.649C256.634 142.789 255.896 143.928 255.158 145.067C253.354 147.85 251.43 150.564 249.767 153.428C246.675 158.76 247.003 164.04 250.159 169.313C251.859 172.172 253.243 175.207 254.286 178.363C248.516 172.132 240.407 167.072 243.291 156.937L223.918 158.27C224.021 162.432 222.599 166.488 219.919 169.682C216.967 173.222 213.29 175.305 208.624 175.157C204.42 186.571 200.378 188.707 189.126 185.573C183.456 195.564 174.524 197.958 164.362 192.125C161.322 190.379 158.407 188.42 154.72 186.11C155.517 187.27 155.787 187.938 156.278 188.334C160.1 191.417 163.7 194.888 167.878 197.398C174.083 201.123 180.851 201.466 187.073 197.36C194.822 192.243 202.239 186.626 209.883 181.343C217.77 175.887 225.743 170.557 233.699 165.202C234.946 164.362 236.317 163.694 237.611 162.952C239.811 166.445 239.72 166.618 236.529 168.797C228.925 173.99 221.275 179.132 213.795 184.502C196.883 196.643 191.982 213.555 194.692 233.335C195.138 236.598 195.881 239.82 196.518 243.23C189.496 238.417 185.549 216.87 194.741 198.702C192.862 199.74 191.357 200.556 189.867 201.397C184.285 204.553 178.459 205.991 172.058 204.224C171.208 203.99 169.967 204.329 169.18 204.828C160.68 210.223 152.202 215.658 143.814 221.224C142.899 221.833 141.994 223.377 142.081 224.405C142.444 228.719 142.655 233.164 143.922 237.252C145.543 242.467 148.105 247.384 150.29 252.417C153.282 259.314 158.935 262.19 166.12 262.612C172.29 262.974 178.468 263.233 184.64 263.541C185.568 263.566 186.49 263.708 187.382 263.963C175.971 267.324 164.572 269.894 152.996 263.853C152.872 264.218 152.662 264.529 152.661 264.847C152.563 280.367 149.094 295.492 147.177 310.798C144.415 332.881 123.706 524.683 120.978 546.771C120.335 551.98 118.735 556.683 114.538 560.497C114.663 558.323 114.663 556.132 114.949 553.976C119.509 518.94 142.073 314.193 146.482 279.137C147.318 272.494 147.094 265.716 147.304 258.999C147.318 258.24 147.141 257.491 146.788 256.818C141.737 247.425 137.588 237.726 136.621 226.497C131.425 229.881 126.595 233.032 121.76 236.176C105.037 247.048 88.2693 257.855 71.6217 268.845C68.513 270.896 65.8693 271.079 63.1458 268.668C61.746 267.427 60.7426 267.87 59.4401 268.831C57.0793 270.569 54.6599 272.275 52.1072 273.717C47.7982 276.154 43.4493 275.811 39.518 272.895C37.9337 271.719 36.9603 272.026 35.5891 273.019C22.7644 282.357 15.8329 295.206 12.8077 310.47C6.16039 344.011 33.3979 363.397 56.031 365.101C78.638 366.797 96.7116 358.612 110.454 340.742C111.599 339.252 112.73 337.752 114.35 336.553C113.436 338.026 112.598 339.551 111.6 340.965C101.878 354.757 89.3301 364.413 72.3371 367.569C49.6517 371.79 27.8973 363.037 15.6933 344.786C7.1725 332.044 6.92319 318.258 10.8159 304.102C14.65 290.155 22.292 278.622 33.8753 269.777C34.2318 269.483 34.5583 269.159 35.0008 268.769ZM335.479 5.3403C332.532 5.6954 328.693 5.82826 325.008 6.65516C301.069 12.0325 286.089 27.1676 278.017 49.7783C277.275 51.8518 277.624 53.2896 278.968 54.926C285.533 62.9128 292.04 70.9443 298.491 79.0205C307.984 90.8566 317.404 102.752 326.948 114.548C327.796 115.595 329.395 116.836 330.533 116.735C352.346 114.816 370.383 105.943 381.646 86.6488C392.08 68.7698 392.442 50.1309 382.145 31.98C372.179 14.4015 356.367 6.16348 335.479 5.3403ZM164.559 201.793C164.335 201.431 164.277 201.228 164.142 201.137C163.519 200.706 162.86 200.325 162.238 199.895C156.393 195.834 150.748 191.328 148.558 184.386C147.521 181.096 145.625 179.384 143.222 177.581C142.071 176.719 141.237 176.62 139.966 177.502C111.485 197.266 82.9823 217.003 54.4592 236.711C50.6102 239.378 50.3547 240.102 51.889 244.533C54.2698 251.411 58.6025 257.041 63.8027 262.001C68.5753 266.555 67.1469 266.17 72.1477 262.886C97.3161 246.361 122.435 229.758 147.503 213.079L164.559 201.793ZM275.973 58.847L274.962 59.1077C274.476 62.4228 273.768 65.7254 273.582 69.0579C273.458 71.3784 272.676 72.8572 270.751 74.1708C259.925 81.5533 249.173 89.0526 238.401 96.527C236.157 98.0827 233.97 99.708 231.814 101.259L237.325 115.675C242.962 114.336 248.187 112.89 253.497 111.877C266.489 109.394 275.902 115.291 279.497 127.962C280.085 130.036 280.554 132.143 281.179 134.64C290.035 129.068 298.604 123.629 307.241 118.303C308.352 117.618 309.82 117.267 311.143 117.211C314.674 117.063 318.216 117.16 322.4 117.16L275.973 58.847ZM206.464 124.264C205.972 123.35 205.574 122.602 205.168 121.857C202.081 116.203 198.971 110.558 195.909 104.89C192.316 98.2329 186.722 94.7292 179.181 94.3132C175.192 94.0935 171.731 95.2581 169.832 98.9978C167.733 103.136 166.901 107.441 169.74 111.668C177.621 123.389 185.625 135.028 193.379 146.83C198.209 154.182 202.643 161.79 207.361 169.218C207.773 169.867 209.003 170.407 209.799 170.341C213.891 170.006 217.402 166.526 218.369 161.977C219.107 158.521 218.483 155.823 215.429 153.239C212.032 150.365 208.777 146.858 206.731 142.963C202.285 134.491 205.804 126.062 214.751 122.666C219.445 120.885 224.357 119.673 229.171 118.197C230.118 117.907 231.063 117.609 232.366 117.203C229.075 108.551 226.109 100.166 222.686 91.9716C220.634 87.0561 217.099 83.1761 211.992 81.0455C204.14 77.7751 195.304 83.042 194.582 91.4749C194.483 92.6308 194.682 94.009 195.251 94.9911C199.614 102.52 204.165 109.944 208.532 117.472C210.863 121.497 210.752 121.56 206.464 124.264ZM161.259 114.872C151.047 114.754 143.629 122.127 144.641 130.686C144.757 131.669 145.371 132.797 146.11 133.466C148.135 135.296 150.577 136.703 152.456 138.657C162.847 149.465 173.163 160.344 183.404 171.296C185.201 173.216 186.769 175.408 188.13 177.66C190.151 181.003 194.51 182.91 198.108 181.712C201.562 180.562 203.731 177.071 202.605 172.996C201.612 169.459 200.084 166.094 198.073 163.016C188.468 148.34 178.525 133.883 168.966 119.177C166.777 115.808 164.072 114.75 161.259 114.869V114.872ZM137.577 172.79L133.214 166.315L133.794 165.711C134.716 166.25 135.674 166.736 136.556 167.334C146.059 173.79 155.502 180.347 165.081 186.684C167.384 188.178 169.922 189.28 172.588 189.945C176.963 191.049 181.088 189.381 182.911 186.33C184.801 183.167 184.282 179.654 180.858 176.003C170.018 164.444 159.103 152.952 148.115 141.529C143.657 136.914 139.831 136.87 134.952 141.105C133.265 142.569 131.668 144.379 130.681 146.355C125.512 156.69 126.817 167.186 130.122 178.102L137.577 172.79ZM57.958 263.868L47.0952 248.153C46.1578 248.671 44.9151 249.311 43.721 250.029C41.5347 251.347 39.3123 252.619 37.2258 254.082C35.3075 255.427 34.5396 257.376 35.75 259.526C37.3167 262.311 38.8748 265.164 40.8928 267.618C43.6575 270.979 47.4205 271.343 51.0439 268.935C53.4783 267.317 55.7668 265.485 57.9605 263.866L57.958 263.868Z" fill="url(#paint0_linear_200_670)" stroke="#000006" stroke-width="3" mask="url(#path-1-inside-1_200_670)"/>
<path d="M206.699 201.748C200.469 214.045 199.397 226.96 202.016 240.073C202 240.03 201.984 239.987 201.968 239.944C201.34 238.256 200.792 236.6 200.469 234.921L200.469 234.921C196.594 214.816 202.727 198.035 217.987 184.53M206.699 201.748L207.591 202.2M206.699 201.748L207.591 202.2M206.699 201.748C213.101 189.113 222.864 179.843 235.247 173.602C233.847 173.834 232.434 174.435 231.088 175.289L231.088 175.289C230.861 175.433 230.634 175.577 230.407 175.72C226.059 178.475 221.738 181.211 217.987 184.53M207.591 202.2C214.209 189.139 224.473 179.729 237.58 173.58L203.6 244.245L203.983 244.165C200.239 229.751 200.805 215.593 207.591 202.2ZM217.987 184.53L217.325 183.781M217.987 184.53L217.325 183.781M217.325 183.781C221.138 180.407 225.521 177.631 229.852 174.888C230.085 174.74 230.319 174.592 230.552 174.445M217.325 183.781C201.811 197.51 195.542 214.643 199.487 235.11L230.552 174.445M230.552 174.445C232.674 173.099 235.073 172.272 237.425 172.548L230.552 174.445Z" fill="url(#paint1_linear_200_670)" stroke="#000006" stroke-width="2"/>
<path d="M192.482 277.596L192.482 277.596C182.326 279.606 172.036 279.192 161.631 278.773C161.484 278.767 161.338 278.762 161.191 278.756C160.925 278.745 160.455 278.554 159.916 278.124C159.398 277.712 158.97 277.2 158.755 276.784L158.755 276.783C158.346 275.991 158.185 275.053 158.105 273.94C161.672 276.251 165.679 276.253 169.343 276.255C169.918 276.256 170.485 276.256 171.04 276.265L171.04 276.265C174.52 276.321 177.994 276.37 181.467 276.419C185.681 276.479 189.894 276.538 194.112 276.61L194.113 276.61C194.547 276.618 194.972 276.646 195.402 276.684C195.237 276.747 195.074 276.809 194.915 276.867C194.08 277.175 193.283 277.437 192.482 277.596Z" fill="url(#paint2_linear_200_670)" stroke="#000006" stroke-width="2"/>
<path d="M209.336 356.469C209.222 356.932 209.109 357.363 208.995 357.76C209.531 350.945 210.063 344.169 210.593 337.421C211.842 321.514 213.079 305.765 214.314 290.03C214.515 293.187 214.573 297.141 214.509 301.572C214.404 308.881 213.968 317.442 213.317 325.762C212.666 334.082 211.801 342.153 210.837 348.483C210.355 351.649 209.849 354.372 209.336 356.469Z" fill="url(#paint3_linear_200_670)" stroke="#000006"/>
<path d="M164.764 360.119L171.659 283.648C171.848 309.342 168.934 334.776 165.053 360.144L164.764 360.119Z" fill="url(#paint4_linear_200_670)" stroke="#000006"/>
<path d="M270.227 197.799L269.807 197.717L276.934 170.471C276.864 171.369 276.801 172.267 276.737 173.163C276.119 181.838 275.512 190.355 270.227 197.799Z" fill="url(#paint5_linear_200_670)" stroke="#000006"/>
<path d="M214.649 137.033C214.639 136.971 214.629 136.908 214.618 136.843L229.477 134.808C224.965 136.07 220.456 137.322 215.929 138.512L215.928 138.512C215.384 138.656 215.166 138.601 215.109 138.579C215.108 138.578 215.108 138.578 215.107 138.578C215.086 138.57 215.029 138.547 214.946 138.358C214.849 138.134 214.777 137.812 214.697 137.333C214.682 137.239 214.666 137.138 214.649 137.033Z" fill="url(#paint6_linear_200_670)" stroke="#000006" stroke-width="2"/>
<mask id="path-8-inside-2_200_670" fill="white">
<path d="M227.133 128.924C236.335 124.759 246.094 121.945 256.107 120.568C256.174 120.796 256.24 121.022 256.308 121.248L227.326 129.716C227.263 129.452 227.198 129.189 227.133 128.924Z"/>
</mask>
<path d="M227.133 128.924C236.335 124.759 246.094 121.945 256.107 120.568C256.174 120.796 256.24 121.022 256.308 121.248L227.326 129.716C227.263 129.452 227.198 129.189 227.133 128.924Z" fill="url(#paint7_linear_200_670)"/>
<path d="M227.133 128.924L226.308 127.102L224.795 127.787L225.191 129.4L227.133 128.924ZM256.107 120.568L258.025 120L257.537 118.353L255.835 118.587L256.107 120.568ZM256.308 121.248L256.869 123.167L258.798 122.603L258.224 120.677L256.308 121.248ZM227.326 129.716L225.382 130.184L225.872 132.225L227.887 131.636L227.326 129.716ZM227.958 130.746C236.984 126.661 246.558 123.9 256.379 122.55L255.835 118.587C245.631 119.989 235.686 122.858 226.308 127.102L227.958 130.746ZM254.189 121.136C254.253 121.352 254.324 121.594 254.391 121.818L258.224 120.677C258.157 120.45 258.095 120.239 258.025 120L254.189 121.136ZM255.747 119.328L226.765 127.797L227.887 131.636L256.869 123.167L255.747 119.328ZM229.271 129.249C229.206 128.979 229.14 128.71 229.076 128.448L225.191 129.4C225.256 129.668 225.32 129.925 225.382 130.184L229.271 129.249Z" fill="#000006" mask="url(#path-8-inside-2_200_670)"/>
<path d="M123.071 198.651L62.1056 237.383C63.7977 236.179 65.7797 234.809 67.9905 233.31C75.0194 228.545 84.3252 222.51 93.895 216.475C103.464 210.441 113.29 204.412 121.358 199.657C121.939 199.315 122.51 198.979 123.071 198.651Z" fill="url(#paint8_linear_200_670)" stroke="#000006" stroke-width="2"/>
<path d="M75.7389 255.438L70.5951 258.709C70.9087 258.34 71.2013 258.065 71.512 257.884C72.9187 257.065 74.3279 256.249 75.7389 255.438Z" fill="url(#paint9_linear_200_670)" stroke="#000006" stroke-width="2"/>
<path d="M306.292 109.813C300.805 106.002 296.008 101.682 291.785 96.6627L306.292 109.813ZM306.292 109.813C300.878 106.881 295.415 102.221 290.806 96.8081C287.263 92.6476 284.269 88.0907 282.224 83.6257C281.401 81.8276 280.736 80.0549 280.25 78.3371C283.341 85.079 287.121 91.1235 291.784 96.6624L306.292 109.813Z" fill="url(#paint10_linear_200_670)" stroke="#000006" stroke-width="2"/>
<path d="M291.679 116.222L284.187 121.158C285.095 119.259 286.382 118.111 287.878 117.366C289.014 116.8 290.293 116.454 291.679 116.222Z" fill="url(#paint11_linear_200_670)" stroke="#000006" stroke-width="2"/>
<path d="M214.951 90.3752C214.795 90.2752 214.64 90.1758 214.486 90.0771C212.369 88.7191 210.427 87.4734 208.429 86.3656L214.951 90.3752ZM214.951 90.3752C214.375 89.2208 213.703 88.2493 212.932 87.4392C211.614 86.0533 209.966 85.0944 207.909 84.5208L207.899 84.5181L207.899 84.518C206.672 84.1626 205.363 84.2118 204.167 84.6582C202.971 85.1046 201.953 85.924 201.263 86.9934L201.262 86.9956C200.391 88.3395 199.952 89.6821 199.897 91.0901C199.877 91.6058 199.909 92.1384 199.994 92.6913C200.371 91.3683 200.75 90.1161 201.234 88.9327L201.234 88.9307C201.901 87.3092 202.747 86.0175 204.087 85.5348C205.433 85.0497 206.899 85.5169 208.429 86.3656L214.951 90.3752Z" fill="url(#paint12_linear_200_670)" stroke="#000006" stroke-width="2"/>
<path d="M159.993 120.163C158.372 120.326 156.768 120.626 155.259 121.234C155.795 120.789 156.352 120.467 156.92 120.262C157.844 119.928 158.876 119.874 159.993 120.163Z" fill="url(#paint13_linear_200_670)" stroke="#000006" stroke-width="2"/>
<mask id="path-16-inside-3_200_670" fill="white">
<path d="M143.172 144.616L135.028 148.054C136.214 143.012 139.807 141.522 143.172 144.616Z"/>
</mask>
<path d="M143.172 144.616L135.028 148.054C136.214 143.012 139.807 141.522 143.172 144.616Z" fill="url(#paint14_linear_200_670)"/>
<path d="M143.172 144.616L143.95 146.459L146.815 145.249L144.526 143.144L143.172 144.616ZM135.028 148.054L133.081 147.596L132.179 151.428L135.805 149.897L135.028 148.054ZM142.394 142.774L134.25 146.212L135.805 149.897L143.95 146.459L142.394 142.774ZM136.974 148.512C137.492 146.313 138.417 145.397 139.057 145.128C139.577 144.91 140.506 144.882 141.818 146.089L144.526 143.144C142.473 141.256 139.922 140.427 137.508 141.44C135.214 142.403 133.75 144.754 133.081 147.596L136.974 148.512Z" fill="#000006" mask="url(#path-16-inside-3_200_670)"/>
<defs>
<linearGradient id="paint0_linear_200_670" x1="197.473" y1="0.541016" x2="197.473" y2="569.466" gradientUnits="userSpaceOnUse">
<stop stop-color="#0E2CA6"/>
<stop offset="0.63" stop-color="#000006"/>
</linearGradient>
<linearGradient id="paint1_linear_200_670" x1="218.682" y1="172.495" x2="218.682" y2="245.403" gradientUnits="userSpaceOnUse">
<stop stop-color="#0E2CA6"/>
<stop offset="0.63" stop-color="#000006"/>
</linearGradient>
<linearGradient id="paint2_linear_200_670" x1="177.411" y1="271.822" x2="177.411" y2="280.119" gradientUnits="userSpaceOnUse">
<stop stop-color="#0E2CA6"/>
<stop offset="0.63" stop-color="#000006"/>
</linearGradient>
<linearGradient id="paint3_linear_200_670" x1="211.641" y1="284.854" x2="211.641" y2="360.89" gradientUnits="userSpaceOnUse">
<stop stop-color="#0E2CA6"/>
<stop offset="0.63" stop-color="#000006"/>
</linearGradient>
<linearGradient id="paint4_linear_200_670" x1="168.194" y1="282.354" x2="168.194" y2="360.682" gradientUnits="userSpaceOnUse">
<stop stop-color="#0E2CA6"/>
<stop offset="0.63" stop-color="#000006"/>
</linearGradient>
<linearGradient id="paint5_linear_200_670" x1="273.378" y1="168.68" x2="273.378" y2="198.351" gradientUnits="userSpaceOnUse">
<stop stop-color="#0E2CA6"/>
<stop offset="0.63" stop-color="#000006"/>
</linearGradient>
<linearGradient id="paint6_linear_200_670" x1="225.726" y1="132.65" x2="225.726" y2="139.608" gradientUnits="userSpaceOnUse">
<stop stop-color="#0E2CA6"/>
<stop offset="0.63" stop-color="#000006"/>
</linearGradient>
<linearGradient id="paint7_linear_200_670" x1="241.72" y1="120.568" x2="241.72" y2="129.716" gradientUnits="userSpaceOnUse">
<stop stop-color="#0E2CA6"/>
<stop offset="0.63" stop-color="#000006"/>
</linearGradient>
<linearGradient id="paint8_linear_200_670" x1="96.6711" y1="189.605" x2="96.6711" y2="242.588" gradientUnits="userSpaceOnUse">
<stop stop-color="#0E2CA6"/>
<stop offset="0.63" stop-color="#000006"/>
</linearGradient>
<linearGradient id="paint9_linear_200_670" x1="82.13" y1="243.037" x2="82.13" y2="260.894" gradientUnits="userSpaceOnUse">
<stop stop-color="#0E2CA6"/>
<stop offset="0.63" stop-color="#000006"/>
</linearGradient>
<linearGradient id="paint10_linear_200_670" x1="296.558" y1="71.0625" x2="296.558" y2="113.898" gradientUnits="userSpaceOnUse">
<stop stop-color="#0E2CA6"/>
<stop offset="0.63" stop-color="#000006"/>
</linearGradient>
<linearGradient id="paint11_linear_200_670" x1="288.993" y1="114.791" x2="288.993" y2="123.587" gradientUnits="userSpaceOnUse">
<stop stop-color="#0E2CA6"/>
<stop offset="0.63" stop-color="#000006"/>
</linearGradient>
<linearGradient id="paint12_linear_200_670" x1="207.946" y1="83.2832" x2="207.946" y2="96.197" gradientUnits="userSpaceOnUse">
<stop stop-color="#0E2CA6"/>
<stop offset="0.63" stop-color="#000006"/>
</linearGradient>
<linearGradient id="paint13_linear_200_670" x1="157.524" y1="118.975" x2="157.524" y2="125.432" gradientUnits="userSpaceOnUse">
<stop stop-color="#0E2CA6"/>
<stop offset="0.63" stop-color="#000006"/>
</linearGradient>
<linearGradient id="paint14_linear_200_670" x1="139.1" y1="143.008" x2="139.1" y2="148.054" gradientUnits="userSpaceOnUse">
<stop stop-color="#0E2CA6"/>
<stop offset="0.63" stop-color="#000006"/>
</linearGradient>
</defs>
</svg>
