<svg xmlns="http://www.w3.org/2000/svg" width="51" height="61" viewBox="0 0 51 61" fill="none">
  <path d="M25.8699 60.5548C27.5757 59.7213 33.8379 56.193 41.2805 47.518C41.0924 47.518 40.9043 47.518 40.713 47.518C39.3182 47.5142 37.9248 47.4319 36.5393 47.2715C34.4835 47.0374 32.4478 46.6515 30.4489 46.117C28.7187 45.6565 27.0137 45.1056 25.3412 44.4663V60.6391C25.5218 60.6583 25.7042 60.6292 25.8699 60.5548Z" fill="white"/>
  <path d="M50.2635 6.59777C50.2559 6.44901 50.2166 6.30359 50.1481 6.1713C50.0797 6.039 49.9837 5.92292 49.8667 5.83077C49.7496 5.73862 49.6143 5.67254 49.4696 5.63703C49.325 5.60152 49.1744 5.59739 49.028 5.62488C48.7037 5.68973 48.3534 5.74812 48.0194 5.80326C45.9828 6.13719 43.9215 6.29667 41.8577 6.27996C41.3454 6.27996 40.8362 6.25401 40.327 6.22482C40.8491 6.62371 41.3713 7.02583 41.8837 7.43769C44.6348 9.63124 47.1901 12.0596 49.5209 14.6955C49.8452 15.0425 50.1273 15.3927 50.4224 15.743C50.51 11.6471 50.3608 8.29709 50.2635 6.59777Z" fill="white"/>
  <path d="M44.3224 12.4838C43.129 11.3326 41.8415 10.1943 40.4957 9.09814C39.1499 8.00201 37.7132 6.98048 36.2798 6.03029C36.0593 5.88111 35.8323 5.73193 35.6053 5.586C34.5619 5.34882 33.5341 5.04773 32.5277 4.68444C31.4243 4.28349 30.3523 3.80113 29.3204 3.24133C28.5334 2.81812 27.775 2.34362 27.0503 1.8209C26.7876 1.62956 26.5249 1.42851 26.2752 1.22096C26.0607 0.979514 25.7741 0.813481 25.458 0.747453C25.4106 0.741083 25.3627 0.741083 25.3153 0.747453V39.2676C27.4515 40.2613 29.6558 41.1012 31.9115 41.7809C35.1098 42.7744 38.4345 43.302 41.7832 43.3473C42.0296 43.3473 42.2793 43.3473 42.5193 43.3473C43.236 43.3246 43.9333 43.2663 44.6111 43.1787C48.4735 36.9684 49.8517 27.434 50.2668 19.5049C49.472 18.3419 48.618 17.2205 47.7081 16.1451C46.6429 14.8676 45.5129 13.6456 44.3224 12.4838Z" fill="white"/>
  <path d="M19.306 41.7579L18.6574 41.4336L18.025 41.0801L17.6456 40.8694C17.3505 40.7072 17.0489 40.545 16.757 40.3602L15.5312 39.6273L14.3377 38.8554C12.7163 37.7853 11.1758 36.66 9.73272 35.5119C8.26365 34.3088 6.85943 33.0602 5.55251 31.7922C5.2574 31.4971 4.93958 31.1793 4.57961 30.8193L3.66186 29.8464C3.43161 29.6032 3.21757 29.3535 3.01327 29.1135L2.74407 28.7892L2.30303 28.2801L1.88147 27.7612C1.66743 27.4985 1.45986 27.2358 1.25555 26.9731C2.14737 33.7348 3.95373 40.5937 7.46588 44.975C15.8976 55.5244 23.1911 59.7176 25.0493 60.6418C25.1701 60.7005 25.3012 60.7347 25.4353 60.7423V44.4756C25.2212 44.3945 25.0007 44.3167 24.7867 44.2323C22.915 43.5106 21.0852 42.6845 19.306 41.7579Z" fill="white"/>
  <path d="M24.6602 1.11048C24.2484 1.43478 23.8365 1.75908 23.4019 2.08338C22.6317 2.61651 21.8268 3.09757 20.9924 3.52328C19.9123 4.07245 18.7925 4.53965 17.6424 4.92099C16.2401 5.38283 14.8017 5.72672 13.3422 5.94903C11.596 6.22053 9.8294 6.3388 8.0626 6.3025C5.95957 6.26338 3.86363 6.0464 1.79717 5.65391C1.65061 5.62645 1.49986 5.63061 1.35502 5.6661C1.21019 5.70158 1.07461 5.76758 0.957331 5.85968C0.840056 5.95178 0.743801 6.06788 0.674995 6.20017C0.606189 6.33246 0.5664 6.4779 0.558332 6.6268C0.457799 8.3164 0.302156 11.6696 0.376745 15.7915C0.529165 16.1515 0.701043 16.5114 0.863193 16.8746C2.27138 19.7543 4.04715 22.4392 6.14603 24.8621C7.22379 26.1314 8.36571 27.3448 9.56735 28.4975C10.7608 29.6423 12.0515 30.7676 13.4006 31.8605C14.7497 32.9534 16.183 33.9944 17.584 34.9381C18.985 35.8818 20.4346 36.7606 22.082 37.6654C23.163 38.2557 24.2505 38.8026 25.3445 39.3064V0.760254C25.0889 0.812835 24.8523 0.933883 24.6602 1.11048Z" fill="white"/>
</svg>