<svg xmlns="http://www.w3.org/2000/svg" width="63" height="61" viewBox="0 0 63 61" fill="none">
  <path d="M10.8649 15.0705C14.9328 15.0705 18.2305 11.7728 18.2305 7.70494C18.2305 3.63704 14.9328 0.339355 10.8649 0.339355C6.79704 0.339355 3.49936 3.63704 3.49936 7.70494C3.49936 11.7728 6.79704 15.0705 10.8649 15.0705Z" fill="white"/>
  <path d="M53.671 15.0705C57.7389 15.0705 61.0366 11.7728 61.0366 7.70494C61.0366 3.63704 57.7389 0.339355 53.671 0.339355C49.6031 0.339355 46.3054 3.63704 46.3054 7.70494C46.3054 11.7728 49.6031 15.0705 53.671 15.0705Z" fill="white"/>
  <path d="M39.5598 30.0201C40.2116 26.0047 37.4849 22.2213 33.4696 21.5695C29.4542 20.9177 25.6708 23.6444 25.019 27.6598C24.3672 31.6751 27.0939 35.4586 31.1093 36.1103C35.1246 36.7621 38.9081 34.0354 39.5598 30.0201Z" fill="white"/>
  <path d="M16.0713 55.1306C18.9477 52.2542 18.9477 47.5905 16.0713 44.7141C13.1949 41.8377 8.53123 41.8377 5.65479 44.7141C2.77835 47.5905 2.77835 52.2542 5.65479 55.1306C8.53123 58.0071 13.1949 58.0071 16.0713 55.1306Z" fill="white"/>
  <path d="M60.8176 51.583C61.7521 47.6238 59.3001 43.6568 55.341 42.7224C51.3819 41.7879 47.4148 44.2399 46.4804 48.1991C45.546 52.1582 47.998 56.1252 51.9571 57.0596C55.9162 57.9941 59.8832 55.5421 60.8176 51.583Z" fill="white"/>
  <path d="M32.974 42.5909H32.7951C30.0087 42.3961 27.384 41.2106 25.3957 39.2488L21.6497 35.5491C19.663 33.567 18.4419 30.9457 18.2027 28.1496V28.0663C18.0574 26.6793 17.5215 25.362 16.6573 24.2675C15.7931 23.173 14.636 22.3463 13.3205 21.8833C12.005 21.4203 10.5851 21.3401 9.22589 21.652C7.86665 21.964 6.62384 22.6553 5.64187 23.6455C4.65991 24.6358 3.97911 25.8844 3.6786 27.2462C3.37809 28.608 3.47021 30.0271 3.94424 31.3387C4.41826 32.6502 5.25477 33.8003 6.3565 34.6553C7.45823 35.5103 8.77994 36.0351 10.1681 36.1688H10.3469C13.133 36.3652 15.7572 37.5505 17.7464 39.5109L21.4894 43.2106C23.477 45.1924 24.6991 47.8136 24.9394 50.6101C24.9394 50.6379 24.9394 50.6656 24.9394 50.6934C25.0846 52.0803 25.6206 53.3976 26.4848 54.4921C27.349 55.5866 28.5061 56.4134 29.8216 56.8764C31.1371 57.3394 32.557 57.4196 33.9162 57.1076C35.2754 56.7957 36.5183 56.1044 37.5002 55.1142C38.4822 54.1239 39.163 52.8753 39.4635 51.5135C39.764 50.1517 39.6719 48.7325 39.1979 47.421C38.7238 46.1095 37.8874 44.9594 36.7856 44.1043C35.6839 43.2493 34.3622 42.7245 32.974 42.5909Z" fill="white"/>
  <path d="M54.2877 21.4867H54.2013C51.3139 21.3042 48.5897 20.0845 46.5305 18.0521L43.0312 14.5527C41.0442 12.542 39.8311 9.89408 39.6059 7.07614C39.6074 7.04842 39.6074 7.02062 39.6059 6.99289C39.467 5.60509 38.9371 4.28521 38.0778 3.18664C37.2184 2.08807 36.065 1.25595 34.7515 0.786979C33.438 0.318006 32.0183 0.231418 30.6575 0.537341C29.2968 0.843264 28.0508 1.5291 27.0644 2.51514C26.078 3.50118 25.3916 4.74694 25.0852 6.10759C24.7787 7.46824 24.8648 8.88791 25.3332 10.2016C25.8017 11.5153 26.6334 12.6691 27.7316 13.5288C28.8299 14.3886 30.1496 14.919 31.5373 15.0584H31.6206C34.4403 15.2826 37.0897 16.4971 39.1002 18.4868L42.8955 22.2821C44.8541 24.2624 46.0741 26.8547 46.3517 29.6261V29.7094C46.5176 31.0932 47.0725 32.4016 47.952 33.4828C48.8316 34.5639 49.9997 35.3734 51.3208 35.8174C52.642 36.2613 54.0619 36.3215 55.4159 35.9909C56.7698 35.6603 58.0022 34.9526 58.9701 33.9497C59.938 32.9469 60.6016 31.6901 60.8839 30.3252C61.1662 28.9604 61.0557 27.5435 60.5651 26.2389C60.0746 24.9344 59.2241 23.7957 58.1124 22.9551C57.0007 22.1145 55.6734 21.6064 54.2846 21.4897L54.2877 21.4867Z" fill="white"/>
</svg>