<svg xmlns="http://www.w3.org/2000/svg" width="66" height="61" viewBox="0 0 66 61" fill="none">
  <path d="M39.1647 52.4655C40.2013 54.4352 41.7007 56.1236 43.534 57.3858C45.3673 58.6479 47.4797 59.446 49.6896 59.7113C51.8994 59.9767 54.1407 59.7014 56.2207 58.9091C58.3007 58.1169 60.1571 56.8314 61.6305 55.1631C63.1039 53.4949 64.1501 51.4938 64.6792 49.3318C65.2083 47.1699 65.2045 44.9118 64.668 42.7517C64.1316 40.5915 63.0786 38.594 61.5996 36.9307C60.1206 35.2674 58.2597 33.9882 56.1771 33.2031C53.0179 31.9753 50.4164 29.6352 48.8622 26.6232C47.298 23.6558 46.8281 20.2326 47.5351 16.9536C48.2577 13.6507 47.7276 10.1972 46.0477 7.26315C44.8307 5.15386 43.0788 3.40293 40.9689 2.18711C38.8589 0.971286 36.4656 0.333606 34.0304 0.338406C32.0763 0.335572 30.145 0.757473 28.3701 1.57494C25.947 2.68464 23.899 4.4754 22.476 6.72884C21.0529 8.98228 20.3162 11.6011 20.3558 14.2659C20.3953 16.9308 21.2093 19.5266 22.6985 21.7368C24.1877 23.9471 26.2878 25.6763 28.7428 26.7137C31.875 27.9821 34.4701 30.2977 36.0856 33.2657L36.4966 34.0495C37.9984 36.9865 38.4648 40.3446 37.8202 43.5797C37.2546 46.6086 37.7283 49.7396 39.1647 52.4655Z" fill="white"/>
  <path d="M43.822 20.4791C44.6936 18.826 45.219 17.0126 45.366 15.1497C45.513 13.2867 45.2787 11.4134 44.6772 9.64406C44.0757 7.87477 43.1197 6.24673 41.8677 4.85941C40.6157 3.47209 39.0939 2.35462 37.3954 1.57535C36.0162 0.798978 34.4603 0.391113 32.8776 0.391113C31.2949 0.391113 29.7389 0.798978 28.3598 1.57535C25.9366 2.68505 23.8887 4.47581 22.4656 6.72925C21.0426 8.98269 20.3059 11.6015 20.3454 14.2663C20.3849 16.9312 21.1989 19.527 22.6881 21.7372C24.1774 23.9475 26.2775 25.6768 28.7324 26.7141C30.24 27.346 31.6389 28.2111 32.8776 29.2778C34.1182 28.212 35.518 27.347 37.0261 26.7141C39.947 25.4884 42.3498 23.2838 43.822 20.4791Z" fill="white"/>
  <path d="M51.4851 32.8515C48.0448 32.7313 44.6859 33.9144 42.0803 36.1641C39.545 38.2889 36.3314 39.4334 33.0238 39.3896C29.6311 39.421 26.3446 38.2077 23.7861 35.9795C21.2017 33.6781 17.841 32.4421 14.3813 32.5206C10.7359 32.5608 7.25577 34.0475 4.7065 36.6536C2.15723 39.2597 0.747637 42.7717 0.787824 46.4171C0.82801 50.0625 2.31466 53.5426 4.92076 56.0919C7.52686 58.6411 11.0389 60.0507 14.6843 60.0106C17.766 60.0151 20.7587 58.9778 23.1766 57.0672C25.7409 54.9876 28.9318 53.834 32.2331 53.7929H33.1178C36.4963 53.8362 39.7545 55.0528 42.3345 57.2344C44.3977 58.922 46.9072 59.973 49.5572 60.2592C52.2072 60.5455 54.8834 60.0546 57.2593 58.8465C59.6352 57.6384 61.6084 55.7653 62.9383 53.4553C64.2682 51.1454 64.8976 48.4985 64.7494 45.8372C64.5406 42.4138 63.0681 39.1899 60.6173 36.7906C58.1665 34.3913 54.9121 32.9876 51.4851 32.8515Z" fill="white"/>
  <path d="M19.5575 21.7464C19.1782 21.0282 18.8522 20.2831 18.5822 19.5171C18.6523 21.9957 18.0749 24.4497 16.9067 26.6369C15.3526 29.649 12.7511 31.9891 9.59187 33.2168C6.34869 34.4299 3.68696 36.8289 2.14464 39.929C0.548839 43.1652 0.289559 46.8991 1.42277 50.3248C2.55598 53.7504 4.99077 56.5931 8.20162 58.2393C11.4125 59.8854 15.1419 60.2029 18.5848 59.1233C22.0277 58.0437 24.9081 55.6536 26.6042 52.4688C28.0439 49.7453 28.5214 46.6154 27.9592 43.5865C27.3144 40.3502 27.7808 36.991 29.2828 34.0528L29.6938 33.269C30.0753 32.5483 30.5219 31.8639 31.0279 31.2244C30.0278 30.3828 28.9048 29.6992 27.6979 29.1971C24.206 27.7273 21.3299 25.0949 19.5575 21.7464Z" fill="white"/>
</svg>