<svg xmlns="http://www.w3.org/2000/svg" width="63" height="61" viewBox="0 0 63 61" fill="none">
  <path d="M10.7757 15.427C14.8436 15.427 18.1413 12.1293 18.1413 8.06139C18.1413 3.99349 14.8436 0.695801 10.7757 0.695801C6.70784 0.695801 3.41016 3.99349 3.41016 8.06139C3.41016 12.1293 6.70784 15.427 10.7757 15.427Z" fill="white"/>
  <path d="M53.5818 15.427C57.6497 15.427 60.9473 12.1293 60.9473 8.06139C60.9473 3.99349 57.6497 0.695801 53.5818 0.695801C49.5139 0.695801 46.2162 3.99349 46.2162 8.06139C46.2162 12.1293 49.5139 15.427 53.5818 15.427Z" fill="white"/>
  <path d="M39.4706 30.3765C40.1224 26.3612 37.3957 22.5777 33.3804 21.9259C29.365 21.2741 25.5816 24.0009 24.9298 28.0162C24.278 32.0315 27.0047 35.815 31.0201 36.4668C35.0354 37.1186 38.8189 34.3919 39.4706 30.3765Z" fill="white"/>
  <path d="M15.9821 55.488C18.8585 52.6116 18.8585 47.948 15.9821 45.0715C13.1056 42.1951 8.44199 42.1951 5.56556 45.0715C2.68912 47.948 2.68912 52.6116 5.56556 55.488C8.44199 58.3645 13.1056 58.3645 15.9821 55.488Z" fill="white"/>
  <path d="M60.7284 51.9404C61.6629 47.9813 59.2109 44.0142 55.2517 43.0798C51.2926 42.1454 47.3256 44.5974 46.3912 48.5565C45.4567 52.5156 47.9087 56.4826 51.8678 57.417C55.827 58.3515 59.794 55.8995 60.7284 51.9404Z" fill="white"/>
  <path d="M32.8848 42.9473H32.7059C29.9195 42.7525 27.2948 41.567 25.3064 39.6052L21.5605 35.9055C19.5737 33.9234 18.3526 31.3022 18.1135 28.506V28.4228C17.9682 27.0358 17.4323 25.7185 16.5681 24.624C15.7038 23.5295 14.5467 22.7027 13.2312 22.2397C11.9158 21.7767 10.4959 21.6965 9.13666 22.0085C7.77742 22.3204 6.5346 23.0117 5.55264 24.002C4.57068 24.9922 3.88988 26.2408 3.58937 27.6026C3.28886 28.9644 3.38098 30.3836 3.855 31.6951C4.32903 33.0067 5.16554 34.1568 6.26727 35.0118C7.369 35.8668 8.69071 36.3916 10.0789 36.5252H10.2577C13.0437 36.7217 15.6679 37.9069 17.6572 39.8673L21.4001 43.5671C23.3878 45.5488 24.6099 48.1701 24.8501 50.9665C24.8501 50.9943 24.8501 51.0221 24.8501 51.0498C24.9954 52.4368 25.5313 53.7541 26.3956 54.8486C27.2598 55.9431 28.4169 56.7699 29.7324 57.2329C31.0479 57.6959 32.4677 57.776 33.827 57.4641C35.1862 57.1521 36.429 56.4609 37.411 55.4706C38.393 54.4804 39.0737 53.2318 39.3743 51.87C39.6748 50.5081 39.5827 49.089 39.1086 47.7774C38.6346 46.4659 37.7981 45.3158 36.6964 44.4608C35.5947 43.6058 34.2729 43.081 32.8848 42.9473Z" fill="white"/>
  <path d="M54.1985 21.8431H54.1121C51.2247 21.6607 48.5005 20.4409 46.4413 18.4085L42.942 14.9092C40.955 12.8984 39.7419 10.2505 39.5166 7.43259C39.5182 7.40486 39.5182 7.37707 39.5166 7.34934C39.3778 5.96154 38.8479 4.64165 37.9886 3.54308C37.1292 2.44451 35.9758 1.6124 34.6623 1.14342C33.3488 0.674451 31.9291 0.587864 30.5683 0.893786C29.2076 1.19971 27.9616 1.88555 26.9752 2.87158C25.9888 3.85762 25.3024 5.10338 24.996 6.46403C24.6895 7.82468 24.7756 9.24435 25.244 10.5581C25.7125 11.8718 26.5442 13.0255 27.6424 13.8853C28.7406 14.745 30.0604 15.2754 31.4481 15.4148H31.5314C34.351 15.6391 37.0005 16.8535 39.011 18.8432L42.8063 22.6385C44.7649 24.6189 45.9849 27.2112 46.2625 29.9826V30.0658C46.4284 31.4496 46.9832 32.7581 47.8628 33.8392C48.7423 34.9204 49.9105 35.7299 51.2316 36.1738C52.5527 36.6178 53.9727 36.678 55.3267 36.3474C56.6806 36.0168 57.913 35.309 58.8809 34.3062C59.8488 33.3033 60.5124 32.0465 60.7947 30.6817C61.077 29.3168 60.9665 27.8999 60.4759 26.5954C59.9854 25.2908 59.1349 24.1522 58.0232 23.3115C56.9115 22.4709 55.5842 21.9628 54.1954 21.8462L54.1985 21.8431Z" fill="white"/>
</svg>