 <svg
              xmlns="http://www.w3.org/2000/svg"
              width="32"
              height="32"
              viewBox="0 0 32 32"
              fill="none"
            >
              <path
                d="M16 7.1668C14.4121 7.1668 13.1298 5.89066 13.1298 4.3336C13.1298 2.77646 14.4122 1.5 16 1.5C17.5872 1.5 18.8703 2.77621 18.8703 4.3332C18.8703 5.89026 17.5871 7.1668 16 7.1668ZM16 30.5C14.4122 30.5 13.1298 29.2231 13.1298 27.6668C13.1298 26.1105 14.4122 24.8336 16 24.8336C17.5871 24.8336 18.8703 26.1105 18.8703 27.6668C18.8703 29.2231 17.5871 30.5 16 30.5ZM16 18.8332C14.4122 18.8332 13.1298 17.5563 13.1298 16C13.1298 14.4429 14.4121 13.1668 16 13.1668C17.5872 13.1668 18.8703 14.443 18.8703 16C18.8703 17.5563 17.5871 18.8332 16 18.8332ZM4.20361 7.1668C2.6157 7.1668 1.33337 5.89066 1.33337 4.3336C1.33337 2.77654 2.6157 1.5004 4.20361 1.5004C5.79152 1.5004 7.07385 2.77654 7.07385 4.3336C7.07385 5.89066 5.79152 7.1668 4.20361 7.1668ZM4.20401 13.1668C5.79192 13.1668 7.07425 14.4429 7.07425 16C7.07425 17.5563 5.79152 18.8332 4.20361 18.8332C2.61578 18.8332 1.33337 17.5563 1.33337 16C1.33337 14.443 2.61603 13.1668 4.20401 13.1668ZM27.7965 13.1668C29.3836 13.1668 30.6667 14.443 30.6667 16C30.6667 17.5563 29.3836 18.8332 27.7965 18.8332C26.2094 18.8332 24.9262 17.5563 24.9262 16C24.9262 14.443 26.2093 13.1668 27.7965 13.1668ZM4.20401 24.8336C5.79184 24.8336 7.07425 26.1105 7.07425 27.6668C7.07425 29.2231 5.79152 30.5 4.20361 30.5C2.61578 30.5 1.33337 29.2231 1.33337 27.6668C1.33337 26.1105 2.61611 24.8336 4.20401 24.8336ZM27.7965 7.1668C26.2093 7.1668 24.9262 5.89059 24.9262 4.3336C24.9262 2.77661 26.2093 1.5004 27.7965 1.5004C29.3836 1.5004 30.6667 2.77661 30.6667 4.3336C30.6667 5.89059 29.3836 7.1668 27.7965 7.1668ZM27.7965 24.8336C29.3836 24.8336 30.6667 26.1105 30.6667 27.6668C30.6667 29.2231 29.3836 30.5 27.7965 30.5C26.2094 30.5 24.9262 29.2231 24.9262 27.6668C24.9262 26.1105 26.2094 24.8336 27.7965 24.8336Z"
                fill="white"
                stroke="#131313"
              />
            </svg>