<svg width="913" height="582" viewBox="0 0 913 582" fill="none" xmlns="http://www.w3.org/2000/svg">
<g clip-path="url(#clip0_7820_5)">
<g opacity="0.7">
<mask id="path-1-inside-1_7820_5" fill="white">
<path d="M850.988 389.53L851.021 389.49C837.08 371.723 828.501 379.057 813.074 370.976C810.621 369.691 808.421 367.657 806.28 365.897C805.498 355.441 796.184 353.714 796.649 346.454C797.185 338.063 802.004 325.479 805.868 317.908C808.539 312.692 811.683 307.845 813.392 302.188C818.211 286.302 814.247 254.979 801.084 243.593C794.921 238.27 786.861 237.016 778.991 236.772C776.146 233.381 771.441 231.963 767.167 231.588C753.584 230.403 734.402 237.094 724.095 246.028C715.533 253.455 711.375 264.018 710.647 275.143C710.064 284.066 713.032 291.354 714.094 299.921C716.26 317.389 711.806 331.986 725.024 346.992C726.368 348.517 730.199 351.192 730.697 352.934C732.301 356.965 733.304 369.397 732.844 373.819C732.467 376.344 730.505 378.374 728.556 379.854C724.261 382.493 718.548 384.141 713.814 385.921C702.108 390.32 690.431 394.545 678.413 398.014C679.598 391.683 676.412 375.982 676.656 367.531C677.367 342.573 684.517 315.777 683.63 292.059C683.379 285.453 679.6 279.966 679.095 273.77C678.97 272.134 680.103 272.172 680.375 270.987C680.541 270.242 679.487 267.477 679.235 266.676C677.545 261.282 675.796 256.217 675.224 250.564C675.092 249.277 674.987 248.43 674.364 247.266C681.95 247.717 692.949 249.457 699.114 244.089C704.356 239.527 705.138 230.998 705.489 224.484C706.596 204.136 704.322 183.464 703.17 163.158C702.639 153.795 703.211 144.26 702.004 134.963C701.293 129.365 698.828 115.063 695.063 110.987C694.841 110.747 694.595 110.53 694.328 110.342C689.775 108.208 684.564 106.98 679.852 105.106C673.774 102.693 658.773 95.0813 653.729 94.1376C654.075 90.856 653.658 88.0628 652.053 85.1582C654.437 83.8019 658.522 81.5376 660.039 79.2566C664.884 74.1279 663.407 51.2656 663.208 44.2258C662.829 31.1966 654.478 17.6528 645.145 8.88208C638.271 2.41844 629.35 -0.301133 620.004 0.0213378C607.603 0.448137 595.407 7.25311 587.082 16.2728C578.38 25.7027 573.402 40.0076 573.93 52.8258C574.295 61.836 577.889 70.0614 582.953 77.3715C584.477 79.5766 586.591 81.9193 587.547 84.4185C576.365 84.6319 574.845 85.4925 564.93 90.3106C565.077 92.9662 563.327 96.7814 561.834 98.9676C555.26 102.975 520.089 119.267 519.368 123.821C519.368 123.897 519.321 124.832 519.321 124.879C519.162 127.29 515.576 130.619 514.21 132.723C510.844 137.939 508.45 143.687 506.807 149.662C504.155 159.303 503.301 169.546 503.28 179.514C503.28 183.185 504.633 190.585 503.055 193.62C485.987 195.685 468.682 196.671 451.553 198.281C444.84 198.912 437.804 199.159 431.186 200.441C429.116 200.842 426.485 201.39 424.954 202.931C424.875 204.252 425.079 204.558 425.968 205.573C430.157 210.355 453.483 222.097 460.421 226.04C463.313 227.683 467.037 229.331 469.443 231.591C469.495 231.686 469.55 231.778 469.595 231.875C471.617 236.01 471.842 255.854 472.226 261.955C474.198 290.976 475.752 320.019 476.887 349.084L478.152 385.599C478.318 390.6 478.138 395.754 478.529 400.724C478.669 402.54 478.75 403.897 479.895 405.338C481.08 405.002 481.274 404.945 481.898 403.863C483.436 401.165 475.893 240.933 473.127 232.314C472.942 231.795 472.689 231.303 472.373 230.851C493.762 227.183 514.488 224.522 536.197 223.901C543.322 223.697 550.552 223.382 557.652 224.2C558.215 225.023 558.543 225.983 558.6 226.979C559.66 240.397 559.952 254.029 560.568 267.482C562.101 303.839 563.299 340.207 564.161 376.586C564.332 382.988 566.058 406.54 564.93 410.946C564.814 411.357 564.655 411.754 564.455 412.131C564.368 412.2 564.282 412.271 564.197 412.343C558.745 416.641 552.503 419.25 547.518 424.343C530.716 441.498 525.546 477.33 522.597 500.692C521.921 506.056 519.7 537.03 518.283 538.974C506.904 537.746 495.5 536.228 484.1 535.479C487.784 528.745 484.811 483.374 483.569 473.657C482.521 465.432 481.018 457.194 478.683 449.235C473.859 432.744 464.387 420.262 449.242 411.975C447.236 410.894 445.182 409.899 443.078 408.99C440.975 408.081 438.849 407.26 436.702 406.529C434.543 405.798 432.356 405.16 430.14 404.615C427.925 404.07 425.691 403.618 423.439 403.259C422.804 399.465 419.29 394.886 416.202 392.729C409.194 387.828 401.334 388.425 393.506 386.173C388.765 384.809 383.934 382.082 379.705 379.557C378.314 375.972 376.908 372.444 375.258 368.958C385.425 365.71 393.552 357.94 398.444 348.541C402.626 340.479 403.773 331.768 400.962 323.073C399.404 318.229 397.012 313.534 395.858 308.578C394.049 300.794 393.585 292.715 391.895 284.905C388.303 268.248 377.856 253.338 362.5 245.602C351.906 240.262 337.427 237.563 326.021 241.405C312.326 246.016 300.462 258.818 294.28 271.605C288.761 283.022 288.472 295.497 285.632 307.646C283.567 316.474 280.104 325.389 279.253 334.423C278.931 337.671 279.151 340.95 279.902 344.126C280.152 345.182 280.46 346.224 280.825 347.246C281.005 347.773 281.199 348.292 281.405 348.809C281.612 349.326 281.83 349.833 282.062 350.338C282.294 350.843 282.536 351.343 282.794 351.834C283.053 352.325 283.318 352.814 283.598 353.292C283.878 353.771 284.172 354.241 284.475 354.715C284.779 355.189 285.094 355.637 285.423 356.086C285.753 356.534 286.087 356.977 286.435 357.409C286.784 357.84 287.147 358.265 287.512 358.68C287.877 359.095 288.261 359.5 288.65 359.896C289.038 360.292 289.439 360.678 289.835 361.053C290.231 361.428 290.66 361.795 291.086 362.151C291.513 362.507 291.949 362.862 292.393 363.187C292.836 363.512 293.289 363.842 293.746 364.155C294.204 364.468 294.673 364.766 295.149 365.056C295.626 365.345 296.098 365.62 296.593 365.883C297.089 366.146 297.575 366.4 298.075 366.639C300.322 367.725 302.742 368.472 305.117 369.222C303.868 371.064 302.557 372.887 301.379 374.775C295.093 377.829 288.955 380.702 282.086 382.165C276.603 383.327 270.906 383.308 265.459 384.492C253.549 387.081 247.272 399.192 243.61 409.796C242.93 411.764 242.275 413.765 241.794 415.79C236.342 410.733 230.97 405.869 224.278 402.5C221.088 400.897 217.508 399.614 214.472 397.77C211.573 396.008 209.543 392.456 206.796 390.339C199.789 384.944 190.57 381.499 182.449 378.206C189.442 374.905 193.789 370.355 196.475 363.031C200.066 353.231 200.581 339.422 197.577 329.399C196.155 324.673 193.687 320.282 192.481 315.48C190.504 307.596 190.57 300.343 186.962 292.763C183.94 286.413 172.369 264.125 167.965 259.425C165.639 256.945 162.823 255.371 159.637 254.249C151.146 251.259 133.419 248.558 124.611 249.507C118.8 250.142 113.178 252.129 107.958 254.704C100.014 258.619 90.2217 265.104 87.2206 273.796C84.6344 281.287 86.6304 289.623 83.7052 296.908C79.3671 307.713 68.8042 306.596 67.1116 321.567C66.6375 325.835 67.2278 329.925 69.1432 333.795C71.9498 339.467 77.0227 343.784 78.9191 349.93C81.7637 359.123 72.0755 371.965 85.7936 376.465C88.0029 377.189 90.4042 377.556 92.6681 378.042C86.9788 380.857 81.2896 383.56 75.4416 386.03C67.0405 389.587 56.4207 392.473 49.3874 398.334C45.5637 401.521 42.968 405.857 41.3656 410.529C33.7065 432.831 42.6219 473.363 45.8956 497.105C33.3319 500.23 12.2107 499.184 4.64883 511.521C2.32099 515.315 0.758826 520.268 0.218351 524.686C-0.63029 531.604 0.692452 573.464 2.27832 579.012C2.41459 579.499 2.65752 579.95 2.98947 580.331L4.72468 580.131C5.97868 576.454 5.27938 571.422 5.09448 567.565L3.90923 545.641C3.16252 532.783 0.806229 514.072 14.8491 507.284C23.6389 503.037 60.6686 499.696 63.4445 497.254L63.5843 496.121L62.8447 495.265C58.4759 494.945 53.7538 495.87 49.4371 496.562C45.5614 476.09 36.0888 422.436 47.5147 405.443C54.3085 395.342 84.632 386.554 96.8828 380.1C104.54 385.777 106.972 383.555 114.963 385.988C117.286 386.699 119.426 388.292 121.572 389.428C126.448 392.015 133.619 392.051 138.94 391.247C147.837 389.902 154.88 385.613 162.079 380.544C166.369 380.325 171.158 379.768 175.413 380.306C185.907 381.634 199.727 388.563 207.559 395.645C207.912 395.961 208.261 396.286 208.607 396.62C201.849 395.05 195.261 393.898 188.308 393.805C168.145 393.537 135.612 400.371 118.217 411.268C101.624 421.673 96.4727 438.494 92.3623 456.632C86.9741 480.408 84.4922 504.631 82.8399 528.906C74.4649 528.138 31.8385 523.507 27.9793 524.78L27.3108 525.852L27.6735 527.17C30.3167 528.607 74.7352 531.263 82.9703 532.505C82.9324 536.207 81.906 542.991 84.4732 545.85L85.6964 545.461C87.3557 541.715 86.4976 527.18 86.7845 521.688C88.0574 497.133 93.896 444.234 107.844 425.137C113.507 417.386 122.226 412.112 131.054 408.696C158.177 398.201 192.426 391.88 219.967 404.167C225.441 406.61 230.477 409.935 234.875 414.009C204.447 402.46 184.829 400.447 154.244 414.282C134.707 423.122 123.191 437.128 115.683 457.019C113.076 463.928 111.106 471.075 109.138 478.186C103.542 498.39 101.923 511.962 103.895 532.958C104.329 537.589 104.222 543.078 105.791 547.467L106.853 548.221C107.835 547.59 107.82 547.415 108.057 546.251C109.105 541.11 106.232 521.421 106.294 513.594C106.441 494.715 117.132 456.862 127.154 441.038C131.231 434.6 136.895 428.803 143.108 424.409C160.621 412.025 186.872 405.314 208.093 409.047C209.54 409.309 210.981 409.604 212.414 409.931C213.847 410.258 215.27 410.619 216.681 411.012C218.103 411.406 219.511 411.831 220.903 412.288C222.295 412.745 223.682 413.234 225.063 413.756C226.438 414.277 227.801 414.831 229.152 415.416C230.503 416 231.84 416.615 233.161 417.26C234.484 417.905 235.79 418.58 237.079 419.285C238.369 419.99 239.643 420.724 240.903 421.486C239.21 434.316 238.172 447.188 237.174 460.087C236.51 468.656 236.183 477.465 234.585 485.913C234.135 488.296 233.422 492.201 231.504 493.88C225.755 498.909 211.539 487.834 209.053 505.686C208.858 507.094 208.735 508.531 208.628 509.954C192.419 510.08 168.979 511.692 156.909 523.988C145.699 535.408 146.154 550.521 146.424 565.333C146.5 569.601 145.793 577.943 147.913 581.41L148.958 581.483C151.585 578.213 150.489 573.089 150.212 569.172C147.664 533.252 155.339 518.343 193.199 514.191C198.597 513.622 204.024 513.375 209.451 513.451C213.073 521.828 218.961 528.389 223.776 536.034C222.612 543.808 219.903 576.032 224.229 581.483C224.373 581.666 224.531 581.836 224.703 581.993C225.535 581.383 225.473 581.191 225.625 580.203C226.99 571.358 224.942 556.596 226.061 545.921C246.374 555.87 263.868 554.685 286.035 553.499C286.035 558.68 284.904 567.821 287.417 572.302L288.349 572.639C289.185 571.97 289.33 572.044 289.453 571C290.638 561.056 289.29 548.643 289.733 538.279C290.342 524.038 292.485 509.681 294.775 495.62C298.738 471.329 302.294 443.385 322.842 426.991C337.539 415.268 373.957 406.313 392.793 404.636C396.214 404.363 399.641 404.259 403.074 404.326C406.506 404.392 409.927 404.629 413.336 405.037C425.783 406.498 451.593 412.504 459.376 423.437C459.704 423.919 459.944 424.455 460.087 425.021C456.718 422.545 451.553 420.926 447.606 419.551C431.013 413.751 416.811 412.02 399.445 414.683C375.111 418.417 349.081 428.042 334.109 448.59C320.191 467.694 308.789 509.579 307.488 533.176C306.95 542.934 308.711 552.119 309.602 561.765C310.077 566.849 309.892 572.184 310.747 577.203C310.984 578.548 311.238 579.548 312.023 580.703L312.902 580.821C316.188 576.167 311.167 547.033 311.056 539.348C310.819 522.95 314.761 506.423 319.433 490.788C328.607 460.078 338.326 438.738 369.763 426.448C374.424 424.629 379.165 423.043 383.987 421.689C388.808 420.336 393.675 419.222 398.586 418.346C416.071 415.342 430.351 417.362 447.006 423.088C452.726 425.052 458.638 427.157 463.617 430.676C474.713 438.517 477.152 455.039 479.179 467.525C482.953 490.75 483.337 516.223 480.601 539.569C480.089 543.925 474.848 567.868 475.531 569.805L476.199 570.135C480.355 566.69 482.668 552.555 483.206 547.277C483.317 546.397 483.165 545.503 482.768 544.71C494.798 546.533 506.43 548.058 518.608 548.432C518.674 548.537 518.74 548.639 518.799 548.745C521.146 553.08 518.434 560.515 521.966 564.115L523.266 564.089C524.863 561.566 523.266 545.49 523.266 540.902C523.211 510.883 529.547 443.923 552.766 423.982C564.579 413.834 581.248 410.337 596.064 407.024C622.929 401.013 650.794 399.866 674.907 415.323C677.405 416.921 680.952 419.117 681.767 422.059C672.852 413.808 647.233 410.54 635.369 410.981C612.401 411.835 586.975 420.207 571.074 437.464C552.954 457.118 539.451 504.804 540.651 531.348C540.888 536.631 542.99 562.524 544.7 566.384L545.648 566.737C547.307 564.985 547.265 562.429 547.212 560.145C547.132 556.826 546.537 553.475 546.006 550.187C544.346 539.97 543.581 529.297 544.401 518.964C546.072 497.809 556.545 461.991 569.125 445.057C582.09 427.608 603.578 418.474 624.631 415.453C643.358 412.769 660.378 415.572 677.578 423.254C680.897 424.743 686.221 427.029 688.767 429.578C688.912 429.745 689.045 429.922 689.163 430.109C697.697 437.37 702.201 466.911 703.076 477.584C704.574 495.922 704.408 514.715 702.035 532.98C701.485 537.236 696.779 556.437 698.204 559.261L699.285 559.904C700.691 559.021 701.027 558.102 701.433 556.52C702.706 551.541 706.437 535.417 705.197 530.564C720.906 535.465 731.161 539.135 748.07 537.81C751.417 537.546 755.307 537.388 758.548 536.551L758.709 536.878C760.385 540.785 758.045 548.461 760.788 551.342C761.262 551.23 761.717 551.275 761.973 550.846C764.479 546.625 763.007 532.401 763.158 526.734C763.827 500.474 768.864 440.075 786.252 420.124C796.208 408.691 810.689 402.815 824.934 398.739C845.031 392.975 869.926 388.612 890.421 394.877C897.938 397.177 904.898 400.938 912.36 403.363C912.898 401.703 912.939 401.35 912.559 399.64C910.101 398.348 907.323 397.727 904.751 396.648C886.647 389.068 870.521 387.093 850.988 389.53ZM161.273 377.845C152.803 381.032 148.766 385.416 138.753 387.804C129.33 388.838 123.902 387.477 116.134 382.014C109.899 382.118 105.336 382.713 100.429 378.22C99.1846 377.082 97.9661 375.811 96.34 375.239C92.5471 373.902 87.7232 374.078 84.3808 371.728C83.2382 370.924 82.2615 369.942 81.8206 368.586C79.8768 362.606 84.3262 355.491 82.4109 349.079C79.974 340.934 72.002 335.689 70.5583 327.028C67.6758 309.842 83.4231 309.557 87.4435 297.581C90.5607 288.298 86.9006 278.918 93.1042 270.275C99.7867 260.966 114.052 254.432 125.13 252.582C132.881 251.776 155.83 255.361 162.252 259.145C169.178 263.233 183.176 291.492 186.097 299.999C187.668 304.578 187.519 309.588 188.688 314.266C190.093 319.957 192.926 325.304 194.405 330.99C197.16 341.574 197.188 356.411 191.414 365.933C182.069 381.333 173.441 373.264 161.273 377.845ZM295.318 361.082C288.948 356.754 284.368 349.608 283.008 342.037C282.432 338.822 282.512 335.573 282.972 332.351C284.2 323.713 287.35 315.175 289.218 306.631C291.21 297.512 291.947 288.04 294.893 279.153C295.311 277.898 295.774 276.661 296.283 275.442C296.791 274.223 297.345 273.023 297.942 271.84C298.536 270.661 299.175 269.505 299.857 268.371C300.54 267.238 301.262 266.131 302.024 265.052C309.688 254.111 319.841 245.535 333.3 243.164C344.413 242.187 356.918 245.549 366.21 251.683C378.425 259.745 386.596 273.628 389.289 287.888C390.595 294.764 390.906 301.856 392.371 308.685C393.777 315.17 397.43 321.05 398.707 327.561C400.367 335.922 397.508 344.496 392.888 351.429C388.035 358.715 381.746 363.887 373.115 365.644C372.765 365.352 372.404 365.091 372.042 364.804C371.897 364.688 371.771 364.567 371.624 364.444C366.604 360.356 353.846 360.228 347.715 360.946C343.245 361.715 338.802 362.454 334.258 362.537C324.276 362.718 316.548 360.641 307.495 366.355C303.259 365.046 299.011 363.59 295.318 361.082ZM316.356 365.601L316.776 365.584C320.568 365.399 324.006 367.069 327.538 368.283C342.631 373.471 353.232 371.128 367.734 365.686C371.511 369.295 373.471 372.996 375.585 377.667C372.902 378.941 370.079 379.972 367.32 381.075C346.933 385.646 323.702 385.072 305.094 374.701C308.557 370.87 311.591 367.842 316.356 365.601ZM286.094 549.902C278.319 550.517 270.532 550.762 262.733 550.637C251.354 550.448 235.157 549.862 226.701 541.129C230.66 541.108 234.884 542.044 238.824 542.566C246.533 543.581 254.211 544.565 261.974 545.063C269.738 545.561 277.928 543.844 285.511 544.826C286.329 546.251 286.075 548.297 286.094 549.902ZM417.167 402.104C409.012 400.66 400.45 400.406 392.21 401.156C374.32 402.766 338.162 411.842 323.648 422.138C299.589 439.21 295.643 469.534 291.084 496.533C288.733 511.308 286.708 525.793 285.971 540.757C271.817 542.047 244.869 542.554 231.836 537.34C224.772 534.516 216.427 521.205 213.654 514.298C212.262 510.836 211.447 506.525 213.033 502.983C216.973 494.184 225.611 500.946 231.582 498.241C234.315 496.996 235.937 494.003 236.823 491.272C239.111 484.223 239.279 476.192 239.834 468.846C241.128 451.708 241.73 423.833 247.848 408.025C251.26 399.233 257.048 389.658 267.05 387.778C272.421 386.765 277.987 386.801 283.325 385.625C290.228 384.103 296.79 380.883 303.238 378.052C326.86 388.454 351.511 390.649 375.894 381.473C381.384 383.979 386.506 387.662 392.347 389.393C398.036 391.076 404.25 390.988 409.799 393.17C411.596 393.881 413.331 394.721 414.803 395.991C416.638 397.58 418.489 399.927 418.693 402.41C418.174 402.289 417.669 402.194 417.167 402.104ZM799.704 358.409C801.248 360.069 802.269 362.187 802.155 364.482C792.778 361.359 777.844 362.191 767.987 362.995C757.237 364.394 747.52 367.891 737.087 370.497C739.335 368.977 741.03 366.509 742.992 364.622C750.258 357.636 757.123 354.872 766.828 352.892C768.802 352.724 770.781 352.625 772.766 352.595C780.032 352.56 794.487 352.778 799.704 358.409ZM721.656 335.31C716.843 323.258 718.839 311.269 717.5 298.783C716.997 294.084 715.087 289.562 714.293 284.898C712.622 275.146 714.983 262.847 720.636 254.828C729.253 242.607 745.823 237.492 759.868 235.036C763.533 234.694 767.186 234.818 770.791 235.645C772.09 235.944 772.828 236.21 773.503 237.352L772.271 238.495L772.316 239.854C775.544 242.448 789.106 238.14 798.055 245.279C806.546 252.049 809.753 265.652 810.971 275.973C812.112 285.595 812.55 299.037 807.653 307.722C805.159 312.142 801.76 316.583 800.136 321.38C798.372 326.582 795.494 339.782 792.498 343.569C787.482 344.484 780.501 341.197 775.101 341.131C769.544 341.06 764.071 343.384 758.363 343.502C734.35 343.998 729.663 312.097 725.294 294.344C724.46 290.954 724.017 286.081 721.404 283.618L720.693 284.018C719.446 294.992 730.37 319.628 729.82 324.922C729.82 325.015 729.793 325.105 729.779 325.197C733.75 328.861 735.566 336.892 742.3 342.229C752.242 350.115 762.973 345.914 774.302 345.245C777.742 345.041 781.122 345.482 784.517 345.98C786.811 346.314 789.668 346.547 791.768 347.528C793.074 348.14 793.174 348.477 793.617 349.736C792.735 350.817 792.398 350.881 790.967 350.888C787.897 350.888 784.476 349.914 781.435 349.411C776.642 348.621 771.585 348.837 766.78 349.458C758.334 350.552 748.717 353.627 742.706 359.856C740.465 362.172 738.093 365.613 735.148 366.969C735.203 366.765 735.262 366.564 735.31 366.36C736.13 362.981 735.698 353.776 733.887 350.869C733.693 350.058 723.5 339.934 721.656 335.31ZM675.947 269.678C666.925 272.407 656.585 273.839 647.226 275.131C641.329 276.601 635.078 275.909 629.192 274.868C629.224 274.783 629.251 274.696 629.272 274.607C629.701 272.461 625.837 249.976 624.657 247.814C629.317 247.479 644.462 247.754 647.511 244.665C647.558 243.93 647.551 243.076 647.748 242.37C648.179 240.831 651.858 240.022 653.276 239.157C659.413 238.721 660.952 242.28 665.465 245.144C666.904 246.057 669.602 246.436 671.266 246.804C672.624 249.035 672.181 253.04 672.676 255.714C673.394 259.546 676.538 266.176 675.947 269.678ZM636.085 213.909C635.554 212.325 633.52 212.655 632.148 211.948C632.425 210.26 634.535 208.61 635.741 207.341C637.073 207.059 638.432 206.848 639.79 206.99C644.251 207.465 661.201 213.71 663.64 217.148C666.371 220.999 666.309 226.87 665.482 231.294C665.024 233.748 664.507 235.562 662.4 236.985C660.655 236.523 660.636 236.195 659.577 234.692C656.851 233.488 651.396 237.492 647.606 236.627C644.384 235.892 640.257 232.233 637.033 230.761C637.801 227.472 637.145 217.084 636.085 213.909ZM596.592 183.177C596.633 183.075 596.692 182.976 596.725 182.869C598.828 175.993 587.599 149.088 584.695 141.612C583.728 139.132 582.934 136.007 583.635 133.356C585.273 127.236 602.91 112.94 606.966 103.366C607.013 103.254 607.06 103.141 607.098 103.027C607.769 103.501 608.047 103.601 608.179 104.476C608.71 107.639 603.54 130.885 602.924 135.585C601.466 146.705 603.931 190.876 599.489 197.122C599.736 192.854 598.695 186.945 596.592 183.177ZM578.849 181.447C579.062 174.622 579.221 167.775 579.812 160.97C580.241 155.921 581.879 149.825 581.296 144.875C581.812 144.969 582.263 145.029 582.668 145.394C588.274 150.43 594.717 187.291 596.82 197.058C597.469 200.067 599.345 203.963 599.153 206.995C599.072 208.314 598.939 208.34 597.932 209.203L595.983 208.783C594.544 206.348 580.738 200.339 577.477 198.95C579.454 194.537 578.695 186.452 578.849 181.447ZM605.039 181.7C605.75 169.804 604.972 157.847 605.555 145.949C605.821 140.509 607.596 133.289 606.629 128.044C617.175 130.97 627.779 132.156 637.794 126.61L638.979 126.966C639.072 129.266 633.857 143.11 632.816 147.028C629.682 158.938 623.571 202.343 627.72 213.708C628.296 215.296 630.635 215.344 632.034 216.022L632.532 216.259C633.036 219.64 634.587 225.947 633.274 229.037C630.782 226.021 620.416 221.513 616.564 220.027C614.701 217.193 606.947 214.865 603.877 212.804C603.282 212.404 602.512 211.711 602.301 211.005C602.023 210.028 604.825 185.314 605.039 181.71V181.7ZM691.922 113.353C700.281 122.043 699.285 155.706 699.982 167.839C700.693 180.27 701.724 192.704 702.215 205.146C702.507 212.463 703.521 235.631 697.901 241.025C695.255 243.56 689.236 244.12 685.778 244.252C680.262 244.461 669.227 244.686 665.043 240.802C665.448 240.169 665.832 239.529 666.228 238.906C668.599 235.166 669.163 230.868 669.104 226.488C669.052 222.298 668.468 216.989 665.254 213.969C665.133 213.855 665.017 213.746 664.889 213.632C671.763 213.447 678.555 213.907 685.384 213.826C686.303 213.827 687.213 213.639 688.056 213.275C688.9 212.91 689.66 212.376 690.289 211.707L690.234 211.097C688.419 209.326 673.3 210.149 669.611 210.054C669.932 209.583 670.194 209.074 670.389 208.539C671.197 206.063 671.368 201.805 670.109 199.507C670.481 198.725 670.846 197.916 670.917 197.039C671.628 188.942 671.071 180.728 671.832 172.598C672.183 168.875 673.906 161.766 672.7 158.371L671.681 158.193C665.768 163.317 668.293 199.555 666.861 209.435L666.755 210.106C665.847 210.993 662.36 211.593 661.065 211.906C657.552 209.245 651.346 206.711 647.141 205.295C640.451 203.047 636.865 203.557 630.815 206.512C631.142 206.099 631.451 205.675 631.742 205.241C634.824 200.626 638.557 190.239 641.639 184.363C650.647 167.199 661.013 150.468 669.225 132.91C670.199 130.823 671.294 129.194 670.723 126.821C669.675 122.465 664.797 116.502 660.987 114.171C661.49 113.934 661.969 113.697 662.445 113.424C665.162 111.869 668.762 108.473 669.609 105.391C673.627 105.429 687.738 111.482 691.922 113.353ZM654.16 98.913C654.378 98.8799 654.591 98.8348 654.81 98.8135C657.289 98.555 664.6 101.967 666.567 103.62C666.568 103.745 666.562 103.87 666.548 103.994C665.7 109.009 661.265 108.701 659.046 110.83C655.727 114.01 667.39 124.409 667.342 128.663C666.56 132.751 639.416 182.601 636.64 185.167C636.684 185.46 636.701 185.757 636.692 186.054C636.381 189.276 630.886 199.417 628.566 201.563C631.252 196.51 631.496 170.416 633.046 161.337C635.016 149.847 638.548 138.352 642.843 127.509C645.337 121.216 655.108 104.746 654.16 98.913ZM584.858 73.9097C581.651 69.1011 579.383 64.0104 578.221 58.3411C575.874 46.8934 579.169 33.1338 585.69 23.5569C593.089 12.683 604.681 5.87796 617.455 3.44995C625.449 2.63192 634.43 4.71131 640.833 9.66693C649.45 16.3345 658.358 30.3501 659.657 41.3639C660.226 46.2294 660.286 64.551 659.657 69.2482C659.307 71.8991 658.83 74.5001 657.133 76.6294C657.081 76.774 657.033 76.9257 656.967 77.0656C655.099 80.9187 644.818 85.3645 640.862 86.9365C642.49 85.1819 643.102 82.1042 643.706 79.7877C646.352 69.682 644.496 60.0506 639.285 51.1092C632.498 39.4718 624.417 29.8284 610.818 26.2599C607.736 25.4561 602.497 24.3204 599.596 26.0063C602.293 29.4704 618.949 28.4319 630.329 43.5714C637.097 52.5816 643.841 64.2499 640.982 75.9418C639.916 80.3094 637.808 84.952 637.318 89.3978C637.164 90.7849 637.237 91.1572 638.105 92.1981C641.186 91.6836 646.484 88.8785 648.857 86.8299C648.924 86.92 648.995 87.0077 649.056 87.1026C650.46 89.3148 651.78 93.9337 651.171 96.4802C651.306 97.1792 651.339 97.8939 651.27 98.6024C650.796 102.735 644.574 117.512 641.407 120.179C640.696 121.244 639.273 121.977 638.171 122.624C628.07 128.552 618.361 127.366 607.575 124.54C607.708 124.386 607.84 124.234 607.966 124.066C610.062 121.396 613.418 95.7358 613.063 92.2099C626.036 90.2964 630.476 82.0971 637.953 72.6838C638.887 71.4983 639.1 71.19 638.901 69.6867L637.749 69.1722C633.321 70.0163 627.319 83.1096 620.681 86.3652C615.976 88.6746 612.74 88.9734 607.829 87.2211C606.762 85.1677 603.5 83.2518 601.917 81.3549C595.481 73.6417 589.827 62.4169 588.753 52.4014C588.13 46.5732 590.284 35.3033 589.543 31.832L588.765 31.4788C588.267 31.762 587.823 32.1312 587.454 32.5694C584.233 36.6856 584.79 47.2419 585.24 52.3493C586.221 63.5124 593.252 77.3123 601.094 85.3812C603.533 87.8874 606.603 90.0616 609.301 92.3213C610.785 96.8122 598.595 109.597 595.447 113.441C590.967 118.894 584.292 124.239 581.025 130.432C575.867 140.196 575.741 183.697 574.694 196.496C572.42 194.936 563.896 195.915 560.821 195.879C561.296 195.314 561.709 194.699 562.054 194.047C563.081 191.974 576.365 122.536 576.867 116.9C576.927 116.222 576.709 115.523 576.471 114.897C576.709 114.866 576.946 114.84 577.166 114.799C584.311 113.498 592.378 110.555 596.521 104.243C603.799 93.201 590.548 82.4101 584.858 73.9097ZM577.806 88.3071C582.087 87.6621 586.987 87.342 590.858 89.623C592.899 90.8275 594.449 92.6818 594.988 95.0292C595.564 97.5592 594.893 100.215 593.565 102.38C590.974 106.605 586.454 108.587 581.815 109.69C580.814 110.176 579.56 110.418 578.496 110.735C577.477 109.6 577.64 107.745 577.448 106.23C576.766 100.703 573.181 100.065 569.41 96.9829C568.144 95.9491 567.987 95.7547 567.824 94.2159C569.687 90.9153 574.461 89.6112 577.816 88.3071H577.806ZM566.131 100.679L568.739 100.412C571.233 101.479 572.828 103.067 573.909 105.564C574.606 107.176 574.732 108.352 574.13 109.967C571.868 110.828 570.842 109.019 568.44 109.595C564.548 110.522 560.765 112.914 556.92 114.23C555.919 115.115 555.376 115.397 554.044 115.587C551.889 114.401 550.922 111.641 548.912 110.015C548.794 109.915 548.675 109.82 548.542 109.723C553.994 108.111 561.627 104.082 566.131 100.679ZM543.979 112.473C545.721 112.421 546.603 112.348 547.935 113.721C549.035 114.854 549.5 116.445 549.595 117.989C547.495 120.101 542.31 121.396 539.402 122.306L538.999 122.626C537.576 122.306 535.443 118.401 533.973 117.107C537.071 116.217 541.478 114.515 543.979 112.473ZM529.244 120.132C529.692 120.006 530.156 119.947 530.621 119.959C532.115 120.059 533.094 120.473 534.101 121.55C534.163 122.287 534.381 123.008 534.035 123.684C532.612 126.465 530.522 126.939 527.713 127.833C527.459 127.932 527.188 127.979 526.916 127.971C525.439 127.923 523.875 125.251 522.768 124.251L522.495 124.014C524.669 123.103 527.791 121.998 529.244 120.125V120.132ZM506.682 179.86C506.608 161.297 509.483 144.023 520.886 128.983C522.457 129.458 524.026 131.354 525.532 131.592C529.488 132.227 561.39 116.824 566.067 113.645C568.521 113.334 571.297 114.325 573.596 115.143C573.518 122.781 569.441 137.583 567.817 145.906C564.854 161.171 562.668 176.718 559.193 191.867C558.856 193.359 558.465 194.502 557.569 195.773C542.599 195.066 527.621 194.473 512.636 193.992L506.546 193.603C507.8 189.556 506.693 184.102 506.682 179.853V179.86ZM501.815 197.331C512.534 196.456 524.2 197.831 534.971 198.324C546.053 198.831 557.221 198.76 568.284 199.493C571.022 199.676 573.475 200.551 575.967 201.679C584.192 205.399 641.528 235.961 643.879 239.112C644.51 239.956 644.33 240.271 644.116 241.208C643.021 241.661 642.729 241.725 641.604 241.272C638.847 240.158 635.976 238.137 633.352 236.641C624.709 231.695 615.81 225.751 606.631 221.954C603.265 218.685 577.017 204.977 571.131 201.762C546.21 201.677 521.187 202.032 496.273 202.398C480.165 202.635 464.072 203.163 447.964 202.685C463.147 199.73 486.06 198.5 501.815 197.323V197.331ZM557.413 220.767C547.068 218.946 534.971 220.413 524.425 220.731C505.878 222.673 487.919 224.387 469.569 228.01C468.417 226.102 435.758 207.607 432.312 206.196C476.28 206.183 520.243 205.782 564.202 204.992C566.361 204.925 569.125 204.636 571.154 205.454C577.576 208.036 583.908 212.942 590.038 216.361L624.387 235.477C628.682 237.914 633.527 240.027 637.524 242.894C625.434 244.423 613.21 245.303 601.068 246.066C600.949 245.761 600.774 245.481 600.551 245.241C593.975 238.234 567.177 222.476 557.413 220.759V220.767ZM599.584 402.393C597.541 403.2 595.175 403.484 593.02 403.899C590.913 405.395 571.121 410.012 567.601 410.865C568.105 409.979 568.413 408.994 568.502 407.977C568.815 403.491 568.265 398.585 568.118 394.08L567.269 365.47C566.585 330.942 565.392 296.432 563.69 261.938C563.28 252.928 563.552 233.931 561.457 226.206C562.033 226.254 562.602 226.366 563.154 226.538C569.118 228.539 593.994 241.95 596.388 246.83C596.671 247.237 596.894 247.682 597.05 248.153C599.643 256.805 602.187 397.151 599.584 402.396V402.393ZM667.38 405.092C665.531 407.192 662.794 405.419 660.712 404.575C642.172 397.035 621.924 398.884 602.649 401.836C603.132 401.135 603.461 400.34 603.616 399.503C605.129 392.152 604.188 379.882 604.225 371.998C604.383 343.678 603.798 315.374 602.469 287.086C601.981 275.705 602.165 263.776 600.81 252.492C600.692 251.41 600.314 250.373 599.707 249.469C604.752 249.319 609.751 248.995 614.774 248.58L621.383 248.141C623.133 251.892 623.173 256.62 623.704 260.679C624.254 264.869 624.605 274.541 628.35 277.109C636.775 282.901 664.043 275.634 674.364 273.898C674.423 273.96 674.49 274.019 674.549 274.083C674.648 274.19 674.741 274.301 674.84 274.408C676.263 275.959 676.934 277.63 677.638 279.594C684.616 299.051 673.74 343.346 673.077 366.822C672.918 372.325 676.192 396.34 674.594 399.7C673.29 401.597 669.981 403.057 667.956 404.226C667.808 404.54 667.617 404.832 667.39 405.094L667.38 405.092ZM756.729 533.008C749.049 535.002 739.112 534.772 731.225 533.888C725.432 533.236 709.616 530.194 705.911 525.544C706.183 525.513 706.508 525.466 706.792 525.461C713.043 525.352 720.361 527.583 726.551 528.662C733.402 529.802 740.333 530.398 747.278 530.443C749.85 530.48 757.863 529.821 759.294 531.244C758.51 532.536 758.119 532.494 756.739 533.01L756.729 533.008ZM816.165 397.855C782.388 408.897 773.956 427.328 767.117 460.677C764.239 474.707 761.902 488.939 760.852 503.234C760.501 507.976 760.534 522.815 758.678 526.21C758.626 526.315 758.56 526.414 758.5 526.516C753.536 526.803 748.625 526.907 743.651 526.876C730.953 525.895 718.545 523.557 705.984 521.532C706.036 521.43 706.084 521.326 706.136 521.224C706.188 521.122 706.261 520.987 706.316 520.882C708.08 517.25 707.456 510.687 707.482 506.594C707.594 485.356 707.098 463.153 699.747 442.982C694.058 427.378 684.23 415.057 668.985 407.961C673.385 406.273 677.163 402.744 681.677 400.985C685.972 399.311 690.526 398.14 694.881 396.615C703.139 393.72 711.294 390.514 719.486 387.441C723.232 386.035 728.295 384.752 731.576 382.521C733.235 381.272 734.001 379.218 735.248 377.587C740.769 370.355 761.959 367.519 770.445 366.443C778.218 365.757 796.983 365.399 804.016 368.814C808.283 370.891 810.704 374.713 815.582 376.207C823.405 378.606 832.021 378.644 839.266 382.846C841.956 384.404 845.218 386.95 846.06 390.068C836.08 392.712 826.031 394.635 816.175 397.848L816.165 397.855Z"/>
</mask>
<path d="M850.988 389.53L851.021 389.49C837.08 371.723 828.501 379.057 813.074 370.976C810.621 369.691 808.421 367.657 806.28 365.897C805.498 355.441 796.184 353.714 796.649 346.454C797.185 338.063 802.004 325.479 805.868 317.908C808.539 312.692 811.683 307.845 813.392 302.188C818.211 286.302 814.247 254.979 801.084 243.593C794.921 238.27 786.861 237.016 778.991 236.772C776.146 233.381 771.441 231.963 767.167 231.588C753.584 230.403 734.402 237.094 724.095 246.028C715.533 253.455 711.375 264.018 710.647 275.143C710.064 284.066 713.032 291.354 714.094 299.921C716.26 317.389 711.806 331.986 725.024 346.992C726.368 348.517 730.199 351.192 730.697 352.934C732.301 356.965 733.304 369.397 732.844 373.819C732.467 376.344 730.505 378.374 728.556 379.854C724.261 382.493 718.548 384.141 713.814 385.921C702.108 390.32 690.431 394.545 678.413 398.014C679.598 391.683 676.412 375.982 676.656 367.531C677.367 342.573 684.517 315.777 683.63 292.059C683.379 285.453 679.6 279.966 679.095 273.77C678.97 272.134 680.103 272.172 680.375 270.987C680.541 270.242 679.487 267.477 679.235 266.676C677.545 261.282 675.796 256.217 675.224 250.564C675.092 249.277 674.987 248.43 674.364 247.266C681.95 247.717 692.949 249.457 699.114 244.089C704.356 239.527 705.138 230.998 705.489 224.484C706.596 204.136 704.322 183.464 703.17 163.158C702.639 153.795 703.211 144.26 702.004 134.963C701.293 129.365 698.828 115.063 695.063 110.987C694.841 110.747 694.595 110.53 694.328 110.342C689.775 108.208 684.564 106.98 679.852 105.106C673.774 102.693 658.773 95.0813 653.729 94.1376C654.075 90.856 653.658 88.0628 652.053 85.1582C654.437 83.8019 658.522 81.5376 660.039 79.2566C664.884 74.1279 663.407 51.2656 663.208 44.2258C662.829 31.1966 654.478 17.6528 645.145 8.88208C638.271 2.41844 629.35 -0.301133 620.004 0.0213378C607.603 0.448137 595.407 7.25311 587.082 16.2728C578.38 25.7027 573.402 40.0076 573.93 52.8258C574.295 61.836 577.889 70.0614 582.953 77.3715C584.477 79.5766 586.591 81.9193 587.547 84.4185C576.365 84.6319 574.845 85.4925 564.93 90.3106C565.077 92.9662 563.327 96.7814 561.834 98.9676C555.26 102.975 520.089 119.267 519.368 123.821C519.368 123.897 519.321 124.832 519.321 124.879C519.162 127.29 515.576 130.619 514.21 132.723C510.844 137.939 508.45 143.687 506.807 149.662C504.155 159.303 503.301 169.546 503.28 179.514C503.28 183.185 504.633 190.585 503.055 193.62C485.987 195.685 468.682 196.671 451.553 198.281C444.84 198.912 437.804 199.159 431.186 200.441C429.116 200.842 426.485 201.39 424.954 202.931C424.875 204.252 425.079 204.558 425.968 205.573C430.157 210.355 453.483 222.097 460.421 226.04C463.313 227.683 467.037 229.331 469.443 231.591C469.495 231.686 469.55 231.778 469.595 231.875C471.617 236.01 471.842 255.854 472.226 261.955C474.198 290.976 475.752 320.019 476.887 349.084L478.152 385.599C478.318 390.6 478.138 395.754 478.529 400.724C478.669 402.54 478.75 403.897 479.895 405.338C481.08 405.002 481.274 404.945 481.898 403.863C483.436 401.165 475.893 240.933 473.127 232.314C472.942 231.795 472.689 231.303 472.373 230.851C493.762 227.183 514.488 224.522 536.197 223.901C543.322 223.697 550.552 223.382 557.652 224.2C558.215 225.023 558.543 225.983 558.6 226.979C559.66 240.397 559.952 254.029 560.568 267.482C562.101 303.839 563.299 340.207 564.161 376.586C564.332 382.988 566.058 406.54 564.93 410.946C564.814 411.357 564.655 411.754 564.455 412.131C564.368 412.2 564.282 412.271 564.197 412.343C558.745 416.641 552.503 419.25 547.518 424.343C530.716 441.498 525.546 477.33 522.597 500.692C521.921 506.056 519.7 537.03 518.283 538.974C506.904 537.746 495.5 536.228 484.1 535.479C487.784 528.745 484.811 483.374 483.569 473.657C482.521 465.432 481.018 457.194 478.683 449.235C473.859 432.744 464.387 420.262 449.242 411.975C447.236 410.894 445.182 409.899 443.078 408.99C440.975 408.081 438.849 407.26 436.702 406.529C434.543 405.798 432.356 405.16 430.14 404.615C427.925 404.07 425.691 403.618 423.439 403.259C422.804 399.465 419.29 394.886 416.202 392.729C409.194 387.828 401.334 388.425 393.506 386.173C388.765 384.809 383.934 382.082 379.705 379.557C378.314 375.972 376.908 372.444 375.258 368.958C385.425 365.71 393.552 357.94 398.444 348.541C402.626 340.479 403.773 331.768 400.962 323.073C399.404 318.229 397.012 313.534 395.858 308.578C394.049 300.794 393.585 292.715 391.895 284.905C388.303 268.248 377.856 253.338 362.5 245.602C351.906 240.262 337.427 237.563 326.021 241.405C312.326 246.016 300.462 258.818 294.28 271.605C288.761 283.022 288.472 295.497 285.632 307.646C283.567 316.474 280.104 325.389 279.253 334.423C278.931 337.671 279.151 340.95 279.902 344.126C280.152 345.182 280.46 346.224 280.825 347.246C281.005 347.773 281.199 348.292 281.405 348.809C281.612 349.326 281.83 349.833 282.062 350.338C282.294 350.843 282.536 351.343 282.794 351.834C283.053 352.325 283.318 352.814 283.598 353.292C283.878 353.771 284.172 354.241 284.475 354.715C284.779 355.189 285.094 355.637 285.423 356.086C285.753 356.534 286.087 356.977 286.435 357.409C286.784 357.84 287.147 358.265 287.512 358.68C287.877 359.095 288.261 359.5 288.65 359.896C289.038 360.292 289.439 360.678 289.835 361.053C290.231 361.428 290.66 361.795 291.086 362.151C291.513 362.507 291.949 362.862 292.393 363.187C292.836 363.512 293.289 363.842 293.746 364.155C294.204 364.468 294.673 364.766 295.149 365.056C295.626 365.345 296.098 365.62 296.593 365.883C297.089 366.146 297.575 366.4 298.075 366.639C300.322 367.725 302.742 368.472 305.117 369.222C303.868 371.064 302.557 372.887 301.379 374.775C295.093 377.829 288.955 380.702 282.086 382.165C276.603 383.327 270.906 383.308 265.459 384.492C253.549 387.081 247.272 399.192 243.61 409.796C242.93 411.764 242.275 413.765 241.794 415.79C236.342 410.733 230.97 405.869 224.278 402.5C221.088 400.897 217.508 399.614 214.472 397.77C211.573 396.008 209.543 392.456 206.796 390.339C199.789 384.944 190.57 381.499 182.449 378.206C189.442 374.905 193.789 370.355 196.475 363.031C200.066 353.231 200.581 339.422 197.577 329.399C196.155 324.673 193.687 320.282 192.481 315.48C190.504 307.596 190.57 300.343 186.962 292.763C183.94 286.413 172.369 264.125 167.965 259.425C165.639 256.945 162.823 255.371 159.637 254.249C151.146 251.259 133.419 248.558 124.611 249.507C118.8 250.142 113.178 252.129 107.958 254.704C100.014 258.619 90.2217 265.104 87.2206 273.796C84.6344 281.287 86.6304 289.623 83.7052 296.908C79.3671 307.713 68.8042 306.596 67.1116 321.567C66.6375 325.835 67.2278 329.925 69.1432 333.795C71.9498 339.467 77.0227 343.784 78.9191 349.93C81.7637 359.123 72.0755 371.965 85.7936 376.465C88.0029 377.189 90.4042 377.556 92.6681 378.042C86.9788 380.857 81.2896 383.56 75.4416 386.03C67.0405 389.587 56.4207 392.473 49.3874 398.334C45.5637 401.521 42.968 405.857 41.3656 410.529C33.7065 432.831 42.6219 473.363 45.8956 497.105C33.3319 500.23 12.2107 499.184 4.64883 511.521C2.32099 515.315 0.758826 520.268 0.218351 524.686C-0.63029 531.604 0.692452 573.464 2.27832 579.012C2.41459 579.499 2.65752 579.95 2.98947 580.331L4.72468 580.131C5.97868 576.454 5.27938 571.422 5.09448 567.565L3.90923 545.641C3.16252 532.783 0.806229 514.072 14.8491 507.284C23.6389 503.037 60.6686 499.696 63.4445 497.254L63.5843 496.121L62.8447 495.265C58.4759 494.945 53.7538 495.87 49.4371 496.562C45.5614 476.09 36.0888 422.436 47.5147 405.443C54.3085 395.342 84.632 386.554 96.8828 380.1C104.54 385.777 106.972 383.555 114.963 385.988C117.286 386.699 119.426 388.292 121.572 389.428C126.448 392.015 133.619 392.051 138.94 391.247C147.837 389.902 154.88 385.613 162.079 380.544C166.369 380.325 171.158 379.768 175.413 380.306C185.907 381.634 199.727 388.563 207.559 395.645C207.912 395.961 208.261 396.286 208.607 396.62C201.849 395.05 195.261 393.898 188.308 393.805C168.145 393.537 135.612 400.371 118.217 411.268C101.624 421.673 96.4727 438.494 92.3623 456.632C86.9741 480.408 84.4922 504.631 82.8399 528.906C74.4649 528.138 31.8385 523.507 27.9793 524.78L27.3108 525.852L27.6735 527.17C30.3167 528.607 74.7352 531.263 82.9703 532.505C82.9324 536.207 81.906 542.991 84.4732 545.85L85.6964 545.461C87.3557 541.715 86.4976 527.18 86.7845 521.688C88.0574 497.133 93.896 444.234 107.844 425.137C113.507 417.386 122.226 412.112 131.054 408.696C158.177 398.201 192.426 391.88 219.967 404.167C225.441 406.61 230.477 409.935 234.875 414.009C204.447 402.46 184.829 400.447 154.244 414.282C134.707 423.122 123.191 437.128 115.683 457.019C113.076 463.928 111.106 471.075 109.138 478.186C103.542 498.39 101.923 511.962 103.895 532.958C104.329 537.589 104.222 543.078 105.791 547.467L106.853 548.221C107.835 547.59 107.82 547.415 108.057 546.251C109.105 541.11 106.232 521.421 106.294 513.594C106.441 494.715 117.132 456.862 127.154 441.038C131.231 434.6 136.895 428.803 143.108 424.409C160.621 412.025 186.872 405.314 208.093 409.047C209.54 409.309 210.981 409.604 212.414 409.931C213.847 410.258 215.27 410.619 216.681 411.012C218.103 411.406 219.511 411.831 220.903 412.288C222.295 412.745 223.682 413.234 225.063 413.756C226.438 414.277 227.801 414.831 229.152 415.416C230.503 416 231.84 416.615 233.161 417.26C234.484 417.905 235.79 418.58 237.079 419.285C238.369 419.99 239.643 420.724 240.903 421.486C239.21 434.316 238.172 447.188 237.174 460.087C236.51 468.656 236.183 477.465 234.585 485.913C234.135 488.296 233.422 492.201 231.504 493.88C225.755 498.909 211.539 487.834 209.053 505.686C208.858 507.094 208.735 508.531 208.628 509.954C192.419 510.08 168.979 511.692 156.909 523.988C145.699 535.408 146.154 550.521 146.424 565.333C146.5 569.601 145.793 577.943 147.913 581.41L148.958 581.483C151.585 578.213 150.489 573.089 150.212 569.172C147.664 533.252 155.339 518.343 193.199 514.191C198.597 513.622 204.024 513.375 209.451 513.451C213.073 521.828 218.961 528.389 223.776 536.034C222.612 543.808 219.903 576.032 224.229 581.483C224.373 581.666 224.531 581.836 224.703 581.993C225.535 581.383 225.473 581.191 225.625 580.203C226.99 571.358 224.942 556.596 226.061 545.921C246.374 555.87 263.868 554.685 286.035 553.499C286.035 558.68 284.904 567.821 287.417 572.302L288.349 572.639C289.185 571.97 289.33 572.044 289.453 571C290.638 561.056 289.29 548.643 289.733 538.279C290.342 524.038 292.485 509.681 294.775 495.62C298.738 471.329 302.294 443.385 322.842 426.991C337.539 415.268 373.957 406.313 392.793 404.636C396.214 404.363 399.641 404.259 403.074 404.326C406.506 404.392 409.927 404.629 413.336 405.037C425.783 406.498 451.593 412.504 459.376 423.437C459.704 423.919 459.944 424.455 460.087 425.021C456.718 422.545 451.553 420.926 447.606 419.551C431.013 413.751 416.811 412.02 399.445 414.683C375.111 418.417 349.081 428.042 334.109 448.59C320.191 467.694 308.789 509.579 307.488 533.176C306.95 542.934 308.711 552.119 309.602 561.765C310.077 566.849 309.892 572.184 310.747 577.203C310.984 578.548 311.238 579.548 312.023 580.703L312.902 580.821C316.188 576.167 311.167 547.033 311.056 539.348C310.819 522.95 314.761 506.423 319.433 490.788C328.607 460.078 338.326 438.738 369.763 426.448C374.424 424.629 379.165 423.043 383.987 421.689C388.808 420.336 393.675 419.222 398.586 418.346C416.071 415.342 430.351 417.362 447.006 423.088C452.726 425.052 458.638 427.157 463.617 430.676C474.713 438.517 477.152 455.039 479.179 467.525C482.953 490.75 483.337 516.223 480.601 539.569C480.089 543.925 474.848 567.868 475.531 569.805L476.199 570.135C480.355 566.69 482.668 552.555 483.206 547.277C483.317 546.397 483.165 545.503 482.768 544.71C494.798 546.533 506.43 548.058 518.608 548.432C518.674 548.537 518.74 548.639 518.799 548.745C521.146 553.08 518.434 560.515 521.966 564.115L523.266 564.089C524.863 561.566 523.266 545.49 523.266 540.902C523.211 510.883 529.547 443.923 552.766 423.982C564.579 413.834 581.248 410.337 596.064 407.024C622.929 401.013 650.794 399.866 674.907 415.323C677.405 416.921 680.952 419.117 681.767 422.059C672.852 413.808 647.233 410.54 635.369 410.981C612.401 411.835 586.975 420.207 571.074 437.464C552.954 457.118 539.451 504.804 540.651 531.348C540.888 536.631 542.99 562.524 544.7 566.384L545.648 566.737C547.307 564.985 547.265 562.429 547.212 560.145C547.132 556.826 546.537 553.475 546.006 550.187C544.346 539.97 543.581 529.297 544.401 518.964C546.072 497.809 556.545 461.991 569.125 445.057C582.09 427.608 603.578 418.474 624.631 415.453C643.358 412.769 660.378 415.572 677.578 423.254C680.897 424.743 686.221 427.029 688.767 429.578C688.912 429.745 689.045 429.922 689.163 430.109C697.697 437.37 702.201 466.911 703.076 477.584C704.574 495.922 704.408 514.715 702.035 532.98C701.485 537.236 696.779 556.437 698.204 559.261L699.285 559.904C700.691 559.021 701.027 558.102 701.433 556.52C702.706 551.541 706.437 535.417 705.197 530.564C720.906 535.465 731.161 539.135 748.07 537.81C751.417 537.546 755.307 537.388 758.548 536.551L758.709 536.878C760.385 540.785 758.045 548.461 760.788 551.342C761.262 551.23 761.717 551.275 761.973 550.846C764.479 546.625 763.007 532.401 763.158 526.734C763.827 500.474 768.864 440.075 786.252 420.124C796.208 408.691 810.689 402.815 824.934 398.739C845.031 392.975 869.926 388.612 890.421 394.877C897.938 397.177 904.898 400.938 912.36 403.363C912.898 401.703 912.939 401.35 912.559 399.64C910.101 398.348 907.323 397.727 904.751 396.648C886.647 389.068 870.521 387.093 850.988 389.53ZM161.273 377.845C152.803 381.032 148.766 385.416 138.753 387.804C129.33 388.838 123.902 387.477 116.134 382.014C109.899 382.118 105.336 382.713 100.429 378.22C99.1846 377.082 97.9661 375.811 96.34 375.239C92.5471 373.902 87.7232 374.078 84.3808 371.728C83.2382 370.924 82.2615 369.942 81.8206 368.586C79.8768 362.606 84.3262 355.491 82.4109 349.079C79.974 340.934 72.002 335.689 70.5583 327.028C67.6758 309.842 83.4231 309.557 87.4435 297.581C90.5607 288.298 86.9006 278.918 93.1042 270.275C99.7867 260.966 114.052 254.432 125.13 252.582C132.881 251.776 155.83 255.361 162.252 259.145C169.178 263.233 183.176 291.492 186.097 299.999C187.668 304.578 187.519 309.588 188.688 314.266C190.093 319.957 192.926 325.304 194.405 330.99C197.16 341.574 197.188 356.411 191.414 365.933C182.069 381.333 173.441 373.264 161.273 377.845ZM295.318 361.082C288.948 356.754 284.368 349.608 283.008 342.037C282.432 338.822 282.512 335.573 282.972 332.351C284.2 323.713 287.35 315.175 289.218 306.631C291.21 297.512 291.947 288.04 294.893 279.153C295.311 277.898 295.774 276.661 296.283 275.442C296.791 274.223 297.345 273.023 297.942 271.84C298.536 270.661 299.175 269.505 299.857 268.371C300.54 267.238 301.262 266.131 302.024 265.052C309.688 254.111 319.841 245.535 333.3 243.164C344.413 242.187 356.918 245.549 366.21 251.683C378.425 259.745 386.596 273.628 389.289 287.888C390.595 294.764 390.906 301.856 392.371 308.685C393.777 315.17 397.43 321.05 398.707 327.561C400.367 335.922 397.508 344.496 392.888 351.429C388.035 358.715 381.746 363.887 373.115 365.644C372.765 365.352 372.404 365.091 372.042 364.804C371.897 364.688 371.771 364.567 371.624 364.444C366.604 360.356 353.846 360.228 347.715 360.946C343.245 361.715 338.802 362.454 334.258 362.537C324.276 362.718 316.548 360.641 307.495 366.355C303.259 365.046 299.011 363.59 295.318 361.082ZM316.356 365.601L316.776 365.584C320.568 365.399 324.006 367.069 327.538 368.283C342.631 373.471 353.232 371.128 367.734 365.686C371.511 369.295 373.471 372.996 375.585 377.667C372.902 378.941 370.079 379.972 367.32 381.075C346.933 385.646 323.702 385.072 305.094 374.701C308.557 370.87 311.591 367.842 316.356 365.601ZM286.094 549.902C278.319 550.517 270.532 550.762 262.733 550.637C251.354 550.448 235.157 549.862 226.701 541.129C230.66 541.108 234.884 542.044 238.824 542.566C246.533 543.581 254.211 544.565 261.974 545.063C269.738 545.561 277.928 543.844 285.511 544.826C286.329 546.251 286.075 548.297 286.094 549.902ZM417.167 402.104C409.012 400.66 400.45 400.406 392.21 401.156C374.32 402.766 338.162 411.842 323.648 422.138C299.589 439.21 295.643 469.534 291.084 496.533C288.733 511.308 286.708 525.793 285.971 540.757C271.817 542.047 244.869 542.554 231.836 537.34C224.772 534.516 216.427 521.205 213.654 514.298C212.262 510.836 211.447 506.525 213.033 502.983C216.973 494.184 225.611 500.946 231.582 498.241C234.315 496.996 235.937 494.003 236.823 491.272C239.111 484.223 239.279 476.192 239.834 468.846C241.128 451.708 241.73 423.833 247.848 408.025C251.26 399.233 257.048 389.658 267.05 387.778C272.421 386.765 277.987 386.801 283.325 385.625C290.228 384.103 296.79 380.883 303.238 378.052C326.86 388.454 351.511 390.649 375.894 381.473C381.384 383.979 386.506 387.662 392.347 389.393C398.036 391.076 404.25 390.988 409.799 393.17C411.596 393.881 413.331 394.721 414.803 395.991C416.638 397.58 418.489 399.927 418.693 402.41C418.174 402.289 417.669 402.194 417.167 402.104ZM799.704 358.409C801.248 360.069 802.269 362.187 802.155 364.482C792.778 361.359 777.844 362.191 767.987 362.995C757.237 364.394 747.52 367.891 737.087 370.497C739.335 368.977 741.03 366.509 742.992 364.622C750.258 357.636 757.123 354.872 766.828 352.892C768.802 352.724 770.781 352.625 772.766 352.595C780.032 352.56 794.487 352.778 799.704 358.409ZM721.656 335.31C716.843 323.258 718.839 311.269 717.5 298.783C716.997 294.084 715.087 289.562 714.293 284.898C712.622 275.146 714.983 262.847 720.636 254.828C729.253 242.607 745.823 237.492 759.868 235.036C763.533 234.694 767.186 234.818 770.791 235.645C772.09 235.944 772.828 236.21 773.503 237.352L772.271 238.495L772.316 239.854C775.544 242.448 789.106 238.14 798.055 245.279C806.546 252.049 809.753 265.652 810.971 275.973C812.112 285.595 812.55 299.037 807.653 307.722C805.159 312.142 801.76 316.583 800.136 321.38C798.372 326.582 795.494 339.782 792.498 343.569C787.482 344.484 780.501 341.197 775.101 341.131C769.544 341.06 764.071 343.384 758.363 343.502C734.35 343.998 729.663 312.097 725.294 294.344C724.46 290.954 724.017 286.081 721.404 283.618L720.693 284.018C719.446 294.992 730.37 319.628 729.82 324.922C729.82 325.015 729.793 325.105 729.779 325.197C733.75 328.861 735.566 336.892 742.3 342.229C752.242 350.115 762.973 345.914 774.302 345.245C777.742 345.041 781.122 345.482 784.517 345.98C786.811 346.314 789.668 346.547 791.768 347.528C793.074 348.14 793.174 348.477 793.617 349.736C792.735 350.817 792.398 350.881 790.967 350.888C787.897 350.888 784.476 349.914 781.435 349.411C776.642 348.621 771.585 348.837 766.78 349.458C758.334 350.552 748.717 353.627 742.706 359.856C740.465 362.172 738.093 365.613 735.148 366.969C735.203 366.765 735.262 366.564 735.31 366.36C736.13 362.981 735.698 353.776 733.887 350.869C733.693 350.058 723.5 339.934 721.656 335.31ZM675.947 269.678C666.925 272.407 656.585 273.839 647.226 275.131C641.329 276.601 635.078 275.909 629.192 274.868C629.224 274.783 629.251 274.696 629.272 274.607C629.701 272.461 625.837 249.976 624.657 247.814C629.317 247.479 644.462 247.754 647.511 244.665C647.558 243.93 647.551 243.076 647.748 242.37C648.179 240.831 651.858 240.022 653.276 239.157C659.413 238.721 660.952 242.28 665.465 245.144C666.904 246.057 669.602 246.436 671.266 246.804C672.624 249.035 672.181 253.04 672.676 255.714C673.394 259.546 676.538 266.176 675.947 269.678ZM636.085 213.909C635.554 212.325 633.52 212.655 632.148 211.948C632.425 210.26 634.535 208.61 635.741 207.341C637.073 207.059 638.432 206.848 639.79 206.99C644.251 207.465 661.201 213.71 663.64 217.148C666.371 220.999 666.309 226.87 665.482 231.294C665.024 233.748 664.507 235.562 662.4 236.985C660.655 236.523 660.636 236.195 659.577 234.692C656.851 233.488 651.396 237.492 647.606 236.627C644.384 235.892 640.257 232.233 637.033 230.761C637.801 227.472 637.145 217.084 636.085 213.909ZM596.592 183.177C596.633 183.075 596.692 182.976 596.725 182.869C598.828 175.993 587.599 149.088 584.695 141.612C583.728 139.132 582.934 136.007 583.635 133.356C585.273 127.236 602.91 112.94 606.966 103.366C607.013 103.254 607.06 103.141 607.098 103.027C607.769 103.501 608.047 103.601 608.179 104.476C608.71 107.639 603.54 130.885 602.924 135.585C601.466 146.705 603.931 190.876 599.489 197.122C599.736 192.854 598.695 186.945 596.592 183.177ZM578.849 181.447C579.062 174.622 579.221 167.775 579.812 160.97C580.241 155.921 581.879 149.825 581.296 144.875C581.812 144.969 582.263 145.029 582.668 145.394C588.274 150.43 594.717 187.291 596.82 197.058C597.469 200.067 599.345 203.963 599.153 206.995C599.072 208.314 598.939 208.34 597.932 209.203L595.983 208.783C594.544 206.348 580.738 200.339 577.477 198.95C579.454 194.537 578.695 186.452 578.849 181.447ZM605.039 181.7C605.75 169.804 604.972 157.847 605.555 145.949C605.821 140.509 607.596 133.289 606.629 128.044C617.175 130.97 627.779 132.156 637.794 126.61L638.979 126.966C639.072 129.266 633.857 143.11 632.816 147.028C629.682 158.938 623.571 202.343 627.72 213.708C628.296 215.296 630.635 215.344 632.034 216.022L632.532 216.259C633.036 219.64 634.587 225.947 633.274 229.037C630.782 226.021 620.416 221.513 616.564 220.027C614.701 217.193 606.947 214.865 603.877 212.804C603.282 212.404 602.512 211.711 602.301 211.005C602.023 210.028 604.825 185.314 605.039 181.71V181.7ZM691.922 113.353C700.281 122.043 699.285 155.706 699.982 167.839C700.693 180.27 701.724 192.704 702.215 205.146C702.507 212.463 703.521 235.631 697.901 241.025C695.255 243.56 689.236 244.12 685.778 244.252C680.262 244.461 669.227 244.686 665.043 240.802C665.448 240.169 665.832 239.529 666.228 238.906C668.599 235.166 669.163 230.868 669.104 226.488C669.052 222.298 668.468 216.989 665.254 213.969C665.133 213.855 665.017 213.746 664.889 213.632C671.763 213.447 678.555 213.907 685.384 213.826C686.303 213.827 687.213 213.639 688.056 213.275C688.9 212.91 689.66 212.376 690.289 211.707L690.234 211.097C688.419 209.326 673.3 210.149 669.611 210.054C669.932 209.583 670.194 209.074 670.389 208.539C671.197 206.063 671.368 201.805 670.109 199.507C670.481 198.725 670.846 197.916 670.917 197.039C671.628 188.942 671.071 180.728 671.832 172.598C672.183 168.875 673.906 161.766 672.7 158.371L671.681 158.193C665.768 163.317 668.293 199.555 666.861 209.435L666.755 210.106C665.847 210.993 662.36 211.593 661.065 211.906C657.552 209.245 651.346 206.711 647.141 205.295C640.451 203.047 636.865 203.557 630.815 206.512C631.142 206.099 631.451 205.675 631.742 205.241C634.824 200.626 638.557 190.239 641.639 184.363C650.647 167.199 661.013 150.468 669.225 132.91C670.199 130.823 671.294 129.194 670.723 126.821C669.675 122.465 664.797 116.502 660.987 114.171C661.49 113.934 661.969 113.697 662.445 113.424C665.162 111.869 668.762 108.473 669.609 105.391C673.627 105.429 687.738 111.482 691.922 113.353ZM654.16 98.913C654.378 98.8799 654.591 98.8348 654.81 98.8135C657.289 98.555 664.6 101.967 666.567 103.62C666.568 103.745 666.562 103.87 666.548 103.994C665.7 109.009 661.265 108.701 659.046 110.83C655.727 114.01 667.39 124.409 667.342 128.663C666.56 132.751 639.416 182.601 636.64 185.167C636.684 185.46 636.701 185.757 636.692 186.054C636.381 189.276 630.886 199.417 628.566 201.563C631.252 196.51 631.496 170.416 633.046 161.337C635.016 149.847 638.548 138.352 642.843 127.509C645.337 121.216 655.108 104.746 654.16 98.913ZM584.858 73.9097C581.651 69.1011 579.383 64.0104 578.221 58.3411C575.874 46.8934 579.169 33.1338 585.69 23.5569C593.089 12.683 604.681 5.87796 617.455 3.44995C625.449 2.63192 634.43 4.71131 640.833 9.66693C649.45 16.3345 658.358 30.3501 659.657 41.3639C660.226 46.2294 660.286 64.551 659.657 69.2482C659.307 71.8991 658.83 74.5001 657.133 76.6294C657.081 76.774 657.033 76.9257 656.967 77.0656C655.099 80.9187 644.818 85.3645 640.862 86.9365C642.49 85.1819 643.102 82.1042 643.706 79.7877C646.352 69.682 644.496 60.0506 639.285 51.1092C632.498 39.4718 624.417 29.8284 610.818 26.2599C607.736 25.4561 602.497 24.3204 599.596 26.0063C602.293 29.4704 618.949 28.4319 630.329 43.5714C637.097 52.5816 643.841 64.2499 640.982 75.9418C639.916 80.3094 637.808 84.952 637.318 89.3978C637.164 90.7849 637.237 91.1572 638.105 92.1981C641.186 91.6836 646.484 88.8785 648.857 86.8299C648.924 86.92 648.995 87.0077 649.056 87.1026C650.46 89.3148 651.78 93.9337 651.171 96.4802C651.306 97.1792 651.339 97.8939 651.27 98.6024C650.796 102.735 644.574 117.512 641.407 120.179C640.696 121.244 639.273 121.977 638.171 122.624C628.07 128.552 618.361 127.366 607.575 124.54C607.708 124.386 607.84 124.234 607.966 124.066C610.062 121.396 613.418 95.7358 613.063 92.2099C626.036 90.2964 630.476 82.0971 637.953 72.6838C638.887 71.4983 639.1 71.19 638.901 69.6867L637.749 69.1722C633.321 70.0163 627.319 83.1096 620.681 86.3652C615.976 88.6746 612.74 88.9734 607.829 87.2211C606.762 85.1677 603.5 83.2518 601.917 81.3549C595.481 73.6417 589.827 62.4169 588.753 52.4014C588.13 46.5732 590.284 35.3033 589.543 31.832L588.765 31.4788C588.267 31.762 587.823 32.1312 587.454 32.5694C584.233 36.6856 584.79 47.2419 585.24 52.3493C586.221 63.5124 593.252 77.3123 601.094 85.3812C603.533 87.8874 606.603 90.0616 609.301 92.3213C610.785 96.8122 598.595 109.597 595.447 113.441C590.967 118.894 584.292 124.239 581.025 130.432C575.867 140.196 575.741 183.697 574.694 196.496C572.42 194.936 563.896 195.915 560.821 195.879C561.296 195.314 561.709 194.699 562.054 194.047C563.081 191.974 576.365 122.536 576.867 116.9C576.927 116.222 576.709 115.523 576.471 114.897C576.709 114.866 576.946 114.84 577.166 114.799C584.311 113.498 592.378 110.555 596.521 104.243C603.799 93.201 590.548 82.4101 584.858 73.9097ZM577.806 88.3071C582.087 87.6621 586.987 87.342 590.858 89.623C592.899 90.8275 594.449 92.6818 594.988 95.0292C595.564 97.5592 594.893 100.215 593.565 102.38C590.974 106.605 586.454 108.587 581.815 109.69C580.814 110.176 579.56 110.418 578.496 110.735C577.477 109.6 577.64 107.745 577.448 106.23C576.766 100.703 573.181 100.065 569.41 96.9829C568.144 95.9491 567.987 95.7547 567.824 94.2159C569.687 90.9153 574.461 89.6112 577.816 88.3071H577.806ZM566.131 100.679L568.739 100.412C571.233 101.479 572.828 103.067 573.909 105.564C574.606 107.176 574.732 108.352 574.13 109.967C571.868 110.828 570.842 109.019 568.44 109.595C564.548 110.522 560.765 112.914 556.92 114.23C555.919 115.115 555.376 115.397 554.044 115.587C551.889 114.401 550.922 111.641 548.912 110.015C548.794 109.915 548.675 109.82 548.542 109.723C553.994 108.111 561.627 104.082 566.131 100.679ZM543.979 112.473C545.721 112.421 546.603 112.348 547.935 113.721C549.035 114.854 549.5 116.445 549.595 117.989C547.495 120.101 542.31 121.396 539.402 122.306L538.999 122.626C537.576 122.306 535.443 118.401 533.973 117.107C537.071 116.217 541.478 114.515 543.979 112.473ZM529.244 120.132C529.692 120.006 530.156 119.947 530.621 119.959C532.115 120.059 533.094 120.473 534.101 121.55C534.163 122.287 534.381 123.008 534.035 123.684C532.612 126.465 530.522 126.939 527.713 127.833C527.459 127.932 527.188 127.979 526.916 127.971C525.439 127.923 523.875 125.251 522.768 124.251L522.495 124.014C524.669 123.103 527.791 121.998 529.244 120.125V120.132ZM506.682 179.86C506.608 161.297 509.483 144.023 520.886 128.983C522.457 129.458 524.026 131.354 525.532 131.592C529.488 132.227 561.39 116.824 566.067 113.645C568.521 113.334 571.297 114.325 573.596 115.143C573.518 122.781 569.441 137.583 567.817 145.906C564.854 161.171 562.668 176.718 559.193 191.867C558.856 193.359 558.465 194.502 557.569 195.773C542.599 195.066 527.621 194.473 512.636 193.992L506.546 193.603C507.8 189.556 506.693 184.102 506.682 179.853V179.86ZM501.815 197.331C512.534 196.456 524.2 197.831 534.971 198.324C546.053 198.831 557.221 198.76 568.284 199.493C571.022 199.676 573.475 200.551 575.967 201.679C584.192 205.399 641.528 235.961 643.879 239.112C644.51 239.956 644.33 240.271 644.116 241.208C643.021 241.661 642.729 241.725 641.604 241.272C638.847 240.158 635.976 238.137 633.352 236.641C624.709 231.695 615.81 225.751 606.631 221.954C603.265 218.685 577.017 204.977 571.131 201.762C546.21 201.677 521.187 202.032 496.273 202.398C480.165 202.635 464.072 203.163 447.964 202.685C463.147 199.73 486.06 198.5 501.815 197.323V197.331ZM557.413 220.767C547.068 218.946 534.971 220.413 524.425 220.731C505.878 222.673 487.919 224.387 469.569 228.01C468.417 226.102 435.758 207.607 432.312 206.196C476.28 206.183 520.243 205.782 564.202 204.992C566.361 204.925 569.125 204.636 571.154 205.454C577.576 208.036 583.908 212.942 590.038 216.361L624.387 235.477C628.682 237.914 633.527 240.027 637.524 242.894C625.434 244.423 613.21 245.303 601.068 246.066C600.949 245.761 600.774 245.481 600.551 245.241C593.975 238.234 567.177 222.476 557.413 220.759V220.767ZM599.584 402.393C597.541 403.2 595.175 403.484 593.02 403.899C590.913 405.395 571.121 410.012 567.601 410.865C568.105 409.979 568.413 408.994 568.502 407.977C568.815 403.491 568.265 398.585 568.118 394.08L567.269 365.47C566.585 330.942 565.392 296.432 563.69 261.938C563.28 252.928 563.552 233.931 561.457 226.206C562.033 226.254 562.602 226.366 563.154 226.538C569.118 228.539 593.994 241.95 596.388 246.83C596.671 247.237 596.894 247.682 597.05 248.153C599.643 256.805 602.187 397.151 599.584 402.396V402.393ZM667.38 405.092C665.531 407.192 662.794 405.419 660.712 404.575C642.172 397.035 621.924 398.884 602.649 401.836C603.132 401.135 603.461 400.34 603.616 399.503C605.129 392.152 604.188 379.882 604.225 371.998C604.383 343.678 603.798 315.374 602.469 287.086C601.981 275.705 602.165 263.776 600.81 252.492C600.692 251.41 600.314 250.373 599.707 249.469C604.752 249.319 609.751 248.995 614.774 248.58L621.383 248.141C623.133 251.892 623.173 256.62 623.704 260.679C624.254 264.869 624.605 274.541 628.35 277.109C636.775 282.901 664.043 275.634 674.364 273.898C674.423 273.96 674.49 274.019 674.549 274.083C674.648 274.19 674.741 274.301 674.84 274.408C676.263 275.959 676.934 277.63 677.638 279.594C684.616 299.051 673.74 343.346 673.077 366.822C672.918 372.325 676.192 396.34 674.594 399.7C673.29 401.597 669.981 403.057 667.956 404.226C667.808 404.54 667.617 404.832 667.39 405.094L667.38 405.092ZM756.729 533.008C749.049 535.002 739.112 534.772 731.225 533.888C725.432 533.236 709.616 530.194 705.911 525.544C706.183 525.513 706.508 525.466 706.792 525.461C713.043 525.352 720.361 527.583 726.551 528.662C733.402 529.802 740.333 530.398 747.278 530.443C749.85 530.48 757.863 529.821 759.294 531.244C758.51 532.536 758.119 532.494 756.739 533.01L756.729 533.008ZM816.165 397.855C782.388 408.897 773.956 427.328 767.117 460.677C764.239 474.707 761.902 488.939 760.852 503.234C760.501 507.976 760.534 522.815 758.678 526.21C758.626 526.315 758.56 526.414 758.5 526.516C753.536 526.803 748.625 526.907 743.651 526.876C730.953 525.895 718.545 523.557 705.984 521.532C706.036 521.43 706.084 521.326 706.136 521.224C706.188 521.122 706.261 520.987 706.316 520.882C708.08 517.25 707.456 510.687 707.482 506.594C707.594 485.356 707.098 463.153 699.747 442.982C694.058 427.378 684.23 415.057 668.985 407.961C673.385 406.273 677.163 402.744 681.677 400.985C685.972 399.311 690.526 398.14 694.881 396.615C703.139 393.72 711.294 390.514 719.486 387.441C723.232 386.035 728.295 384.752 731.576 382.521C733.235 381.272 734.001 379.218 735.248 377.587C740.769 370.355 761.959 367.519 770.445 366.443C778.218 365.757 796.983 365.399 804.016 368.814C808.283 370.891 810.704 374.713 815.582 376.207C823.405 378.606 832.021 378.644 839.266 382.846C841.956 384.404 845.218 386.95 846.06 390.068C836.08 392.712 826.031 394.635 816.175 397.848L816.165 397.855Z" fill="#0E2CA6" stroke="#111111" mask="url(#path-1-inside-1_7820_5)"/>
</g>
<path opacity="0.7" d="M878.882 400.217C891.064 400.147 903.156 402.012 912.37 406.41C912.634 407.309 912.756 407.802 912.756 408.289C912.756 408.741 912.65 409.197 912.424 409.979C893.611 401.311 869.76 401.026 850.209 407.314L849.279 407.619C830.496 413.902 818.103 421.935 809.118 433.025C800.419 443.763 794.93 457.348 789.908 474.93L789.424 476.643C786.039 488.737 782.934 501.11 782.959 513.775L782.972 515.002C783.005 516.722 783.308 519.694 783.705 523.236C784.103 526.784 784.596 530.914 785.015 534.965C785.433 539.015 785.776 542.98 785.873 546.196C785.921 547.804 785.908 549.22 785.812 550.363C785.728 551.372 785.582 552.144 785.374 552.645L785.281 552.844L785.28 552.845C785.201 552.994 785.115 553.05 785 553.089C784.933 553.111 784.857 553.127 784.758 553.147C784.697 553.159 784.63 553.176 784.557 553.193L783.874 552.646C783.137 549.836 782.768 546.861 782.509 543.853C782.28 541.207 782.135 538.516 781.896 535.916L781.787 534.807C781.002 527.276 779.724 520.061 779.759 512.507L779.766 511.774C780.047 493.114 788.001 466 796.032 448.516L796.81 446.854C806.602 426.28 822.711 413.608 843.837 405.997L844.847 405.638C854.369 402.303 866.658 400.286 878.882 400.217Z" fill="#0E2CA6" stroke="#111111" stroke-width="0.5"/>
</g>
<defs>
<clipPath id="clip0_7820_5">
<rect width="913" height="582" fill="white"/>
</clipPath>
</defs>
</svg>
