<svg width="61" height="59" viewBox="0 0 61 59" fill="none" xmlns="http://www.w3.org/2000/svg">
<g id="upper-right-arrow 1" clip-path="url(#clip0_7778_209)">
<path id="Vector" d="M13.5576 1.60583H56.3867C57.8656 1.60583 59.0429 2.87949 59.043 4.26208V47.0912C59.043 47.9641 58.7152 48.5246 58.2793 48.891C57.8098 49.2856 57.1281 49.5219 56.3867 49.5219C55.6454 49.5218 54.9636 49.2856 54.4941 48.891C54.0583 48.5246 53.7305 47.964 53.7305 47.0912V10.3998L51.1699 12.9603C50.3743 13.756 49.5762 14.5095 48.7607 15.2797C48.1526 15.854 47.5346 16.4379 46.9131 17.0443L46.29 17.6586C33.1048 30.663 19.7478 43.4785 6.54785 56.3168L6.5332 56.3314C5.83859 57.026 5.13166 57.2198 4.50391 57.1752C3.83538 57.1276 3.14279 56.7981 2.59277 56.2562C2.04164 55.7132 1.71665 55.0395 1.66895 54.4076C1.62472 53.8216 1.80654 53.161 2.48535 52.5131L2.51074 52.4896C3.39909 51.6013 4.33402 50.7099 5.28516 49.8041C6.22368 48.9102 7.17795 48.0014 8.08984 47.0902C14.6 40.8513 21.0645 34.5676 27.5244 28.2885C33.9855 22.0081 40.4422 15.7316 46.9434 9.50134L49.6387 6.91833H13.5576C12.6847 6.91831 12.1242 6.59057 11.7578 6.15466C11.3632 5.68518 11.127 5.00341 11.127 4.26208C11.127 3.52078 11.3632 2.83895 11.7578 2.36951C12.1242 1.93366 12.6848 1.60586 13.5576 1.60583Z" fill="#0E2CA6" stroke="#111111" stroke-width="3"/>
</g>
<defs>
<clipPath id="clip0_7778_209">
<rect width="60.5391" height="58.7319" fill="white" transform="translate(0.0947266 0.00012207)"/>
</clipPath>
</defs>
</svg>
